<svg width="290" height="251" viewBox="0 0 290 251" fill="none" xmlns="http://www.w3.org/2000/svg">
<path d="M47.6493 17.6294C47.6075 17.6294 48.1374 15.0288 48.1862 14.8406C48.7857 12.9791 51.0446 9.74414 53.2269 9.75111C53.5904 9.76136 53.9476 9.84815 54.2753 10.0058C54.603 10.1635 54.8938 10.3885 55.1287 10.6661C55.3635 10.9437 55.5372 11.2678 55.6384 11.6171C55.7396 11.9664 55.766 12.3331 55.7158 12.6933C55.5555 14.2271 54.175 15.5378 52.9271 16.2908C51.463 17.2041 47.6493 17.6294 47.6493 17.6294Z" fill="#92E3A9"/>
<path d="M43.4173 0.143751C45.5089 0.882774 46.4989 4.68944 46.4292 6.64157C46.4292 6.8089 46.0387 9.43033 46.0039 9.43033H45.962C46.1224 10.0299 46.2967 10.6783 46.471 11.3894C46.7778 12.7002 47.1124 14.1782 47.3704 15.8236C47.6695 17.5861 47.865 19.3647 47.956 21.1501C48.0672 23.1508 47.9995 25.1573 47.7538 27.146C47.7506 27.1691 47.7506 27.1925 47.7538 27.2157C48.0257 26.637 48.8345 25.0335 48.9042 24.9219C49.9779 23.2905 53.0037 20.7388 55.1162 21.3453C55.463 21.4511 55.7837 21.6288 56.0572 21.8669C56.3307 22.105 56.551 22.398 56.7036 22.727C56.8562 23.0559 56.9378 23.4133 56.943 23.7759C56.9481 24.1385 56.8768 24.4981 56.7336 24.8313C56.1759 26.2675 54.5026 27.1669 53.1013 27.5643C51.5187 28.0174 47.9909 27.4876 47.712 27.4388C47.4138 29.4572 46.9806 31.4533 46.4152 33.4137C46.0899 34.5571 45.7366 35.6982 45.3555 36.8369C45.5995 36.3419 45.8296 35.9027 45.8644 35.8469C46.9381 34.2085 49.9709 31.6638 52.0764 32.2703C52.4233 32.3761 52.7439 32.5538 53.0174 32.7919C53.291 33.03 53.5112 33.323 53.6639 33.652C53.8165 33.9809 53.8981 34.3383 53.9032 34.7009C53.9084 35.0635 53.8371 35.4231 53.6939 35.7563C53.1361 37.1925 51.4629 38.0919 50.0615 38.4893C48.6602 38.8867 45.6204 38.4893 44.8256 38.3847L44.3864 39.6954C43.6892 41.787 42.9293 43.8785 42.2948 45.9283C42.0647 46.6255 41.8626 47.3784 41.6604 48.1035C41.8835 47.6643 42.0717 47.2948 42.1066 47.239C43.1733 45.6076 46.2061 43.0559 48.3116 43.6624C48.6578 43.7693 48.9777 43.9476 49.2508 44.1857C49.5239 44.4239 49.7441 44.7166 49.8971 45.045C50.0502 45.3734 50.1327 45.7303 50.1394 46.0926C50.1461 46.4548 50.0768 46.8145 49.936 47.1484C49.3783 48.5915 47.698 49.484 46.2967 49.8883C44.8953 50.2927 42.1554 49.9371 41.2072 49.8047C41.019 50.5506 40.8377 51.2966 40.6913 52.0287C40.6006 52.5376 40.4821 53.0117 40.4194 53.5207L40.2102 55.0196C40.1126 55.9748 40.0011 56.9578 39.9313 57.8921C39.8756 58.5405 39.8337 59.161 39.7919 59.7884C40.015 59.0912 40.4891 57.6481 40.4891 57.5365C41.2612 56.0026 42.4133 54.6921 43.8356 53.7298C43.9114 53.5522 44.0073 53.3837 44.1215 53.2279C44.3188 52.9233 44.5783 52.6637 44.8828 52.4663C45.1874 52.2688 45.5301 52.1378 45.8888 52.0819C46.2474 52.0259 46.6138 52.0463 46.964 52.1417C47.3142 52.237 47.6404 52.4052 47.9211 52.6352C49.5805 54.0645 49.1621 57.9827 48.4022 59.7815C48.3604 59.886 47.7399 60.9806 47.3425 61.6708C47.6423 61.3013 47.9211 60.9388 48.2349 60.5693C48.8414 59.8233 49.4689 59.0982 50.1382 58.3174L51.1631 57.2088C51.4977 56.8323 51.9021 56.5116 52.2716 56.1003C53.1431 55.2567 54.0704 54.441 55.0255 53.6392C54.3771 53.1093 52.0903 51.1851 51.435 49.8744C50.7796 48.5637 50.3125 46.73 50.9958 45.3426C51.146 45.0118 51.3641 44.7162 51.636 44.475C51.9078 44.2338 52.2273 44.0525 52.5737 43.9427C52.9201 43.8329 53.2857 43.7972 53.6469 43.8378C54.008 43.8784 54.3565 43.9944 54.67 44.1783C56.5175 45.3426 56.7057 49.2818 56.2247 51.1502C56.2247 51.2688 55.6948 52.5864 55.409 53.3046C55.9876 52.8305 56.5593 52.3564 57.1589 51.9102C58.888 50.5785 60.6797 49.2748 62.4576 47.9711L64.082 46.7719C63.852 46.5836 61.0911 44.3526 60.3521 42.8816C59.7037 41.5778 59.2296 39.7372 59.9128 38.3568C60.0622 38.0252 60.2799 37.7288 60.5516 37.487C60.8233 37.2452 61.143 37.0634 61.4897 36.9536C61.8365 36.8437 62.2025 36.8082 62.5639 36.8493C62.9252 36.8905 63.2739 37.0074 63.587 37.1925C65.4415 38.3498 65.6228 42.2889 65.1418 44.1644C65.1069 44.3038 64.3888 46.2002 64.1866 46.6743C65.3718 45.7888 66.5501 44.8964 67.6726 43.9622C69.1998 42.7172 70.6438 41.3734 71.9951 39.9394C71.8906 39.8488 68.9972 37.5341 68.2443 36.0351C67.5889 34.7314 67.1218 32.8838 67.805 31.5034C67.9545 31.1728 68.172 30.8773 68.4432 30.6361C68.7144 30.395 69.0332 30.2137 69.3791 30.1038C69.725 29.994 70.0901 29.9582 70.4507 29.9988C70.8113 30.0393 71.1594 30.1552 71.4722 30.3391C73.3268 31.5034 73.515 35.4425 73.034 37.311C73.034 37.4365 72.4553 38.8797 72.1834 39.5629L72.288 39.6326C73.6087 38.1504 74.7962 36.5547 75.8367 34.8639C76.4223 33.9366 76.9243 33.0233 77.3984 32.1239C76.8127 31.7474 74.1704 29.9975 73.3407 28.7216C72.5111 27.4457 71.8836 25.7167 72.4065 24.2666C72.5185 23.9209 72.7022 23.6027 72.9454 23.3327C73.1887 23.0627 73.4861 22.8471 73.8183 22.6997C74.1504 22.5524 74.5099 22.4767 74.8733 22.4776C75.2367 22.4784 75.5958 22.5559 75.9273 22.7048C77.9003 23.66 78.5139 27.5852 78.242 29.4885C78.242 29.5931 77.9631 30.6459 77.7609 31.4058C77.9631 30.9944 78.1862 30.5761 78.3744 30.1787C79.0716 28.6937 79.6642 27.2854 80.1523 25.9956C80.4312 25.2984 80.6612 24.6361 80.8495 24.0225C80.466 23.3253 78.974 20.6481 78.8276 19.1422C78.6812 17.6363 78.9183 15.8096 80.0547 14.7638C80.3134 14.5092 80.6229 14.3119 80.9629 14.1847C81.3029 14.0575 81.6659 14.0034 82.0283 14.0257C82.3906 14.0481 82.7442 14.1465 83.066 14.3145C83.3879 14.4825 83.6707 14.7164 83.8962 15.0009C85.2069 16.7508 83.9589 20.4948 82.8295 22.0843C82.7319 22.2238 80.954 24.1759 80.9331 24.1759V24.1341C80.7379 24.7267 80.5288 25.3611 80.2778 26.0444C79.8176 27.3133 79.2808 28.7356 78.5906 30.2275C77.8609 31.8601 77.0392 33.4499 76.1295 34.9894C75.1143 36.7161 73.9477 38.3493 72.6435 39.8697L72.5947 39.9255C73.1385 39.5908 74.6863 38.6984 74.8188 38.6426C76.6175 37.8757 80.5357 37.4435 81.972 39.0888C82.2031 39.3689 82.3727 39.6944 82.4698 40.0443C82.5668 40.3942 82.5891 40.7606 82.5352 41.1197C82.4812 41.4788 82.3523 41.8225 82.1568 42.1284C81.9612 42.4344 81.7035 42.6957 81.4002 42.8955C80.1383 43.7879 78.2489 43.5927 76.8546 43.1744C75.2859 42.6724 72.6714 40.288 72.4344 40.0928C71.0726 41.612 69.6099 43.0375 68.056 44.3596C67.1566 45.1335 66.2224 45.8864 65.2673 46.6324C65.7483 46.3536 66.1806 46.1095 66.2433 46.0817C68.0351 45.3147 71.9533 44.8825 73.3895 46.5279C73.6217 46.8074 73.7923 47.1329 73.8899 47.483C73.9876 47.8331 74.0101 48.1998 73.9562 48.5592C73.9022 48.9186 73.7729 49.2626 73.5767 49.5685C73.3805 49.8745 73.1219 50.1355 72.8178 50.3345C71.5629 51.2269 69.6665 51.0317 68.2791 50.6134C66.8917 50.1951 64.5701 48.1732 63.9705 47.6364C63.601 47.9153 63.2733 48.2011 62.8759 48.487C61.1259 49.8256 59.3899 51.1572 57.6818 52.5237C57.0892 52.9978 56.5245 53.4928 55.9528 53.9878L56.8034 53.5137C58.5951 52.7468 62.5133 52.3076 63.9496 53.9529C64.1809 54.2335 64.3506 54.5596 64.4477 54.9101C64.5448 55.2605 64.5671 55.6275 64.5132 55.9871C64.4593 56.3467 64.3303 56.691 64.1347 56.9976C63.9391 57.3041 63.6813 57.5661 63.3779 57.7666C62.1229 58.659 60.2266 58.4638 58.8392 58.0385C57.4517 57.6132 55.3532 55.7935 54.656 55.1591C54.0913 55.682 53.5196 56.2049 52.9967 56.7347C52.6411 57.1042 52.2995 57.4319 51.9509 57.8293L50.947 58.9588C50.3404 59.7048 49.7059 60.4647 49.1273 61.2037C48.7229 61.7127 48.3464 62.2077 47.9699 62.7097C48.5486 62.2216 49.7199 61.3153 49.8245 61.2316C51.4768 60.1998 55.2905 59.14 56.9567 60.5902C57.2268 60.8328 57.4427 61.1295 57.5906 61.461C57.7384 61.7925 57.8148 62.1515 57.8148 62.5145C57.8148 62.8774 57.7384 63.2364 57.5906 63.5679C57.4427 63.8994 57.2268 64.1961 56.9567 64.4387C55.8412 65.5124 53.9449 65.6239 52.5087 65.4008C50.9191 65.1498 48.0466 63.3092 47.6911 63.0443C47.0636 63.874 46.464 64.6757 45.9063 65.4496C43.975 68.1199 42.4691 70.4206 41.4373 72.0381L41.3327 72.2054L39.9941 71.557L40.2032 71.2363C41.2839 69.6188 42.8595 67.332 44.8674 64.6827C45.5019 63.8391 46.1921 62.9537 46.9102 62.0543C46.1634 61.2383 45.465 60.3793 44.8186 59.4817C43.2779 60.0882 40.0847 60.1091 39.6664 60.1091C39.6037 61.141 39.5479 62.1519 39.5061 63.1001C39.3666 66.3908 39.3806 69.1378 39.4154 71.062V71.2851L37.9443 70.5879C37.9443 68.6776 38.021 66.098 38.2162 63.0443C38.279 61.9985 38.3696 60.8761 38.4742 59.7257C38.0629 59.6211 34.7373 58.7705 33.4823 57.7666C32.3459 56.8533 31.1467 55.3822 31.1886 53.8344C31.1858 53.4713 31.2595 53.1117 31.4048 52.779C31.5502 52.4462 31.764 52.1478 32.0323 51.9032C32.3007 51.6585 32.6175 51.4731 32.9622 51.359C33.3069 51.2449 33.6718 51.2046 34.0331 51.2409C36.2014 51.5197 38.021 55.0196 38.3766 56.9369C38.3766 57.0554 38.4882 58.3313 38.53 59.0982C38.5788 58.6311 38.6136 58.1709 38.6694 57.7038C38.7601 56.7487 38.8855 55.8005 39.018 54.7756C39.0947 54.2806 39.1784 53.7856 39.2551 53.2836C39.3318 52.7817 39.4642 52.2657 39.5688 51.7498C39.8337 50.5646 40.1544 49.3724 40.51 48.1802C39.6734 48.0965 36.7103 47.7479 35.4414 47.0159C34.1725 46.2838 32.7642 45.015 32.576 43.4811C32.5177 43.1224 32.5357 42.7553 32.6287 42.404C32.7218 42.0526 32.8879 41.7248 33.1162 41.442C33.3444 41.1591 33.6297 40.9275 33.9535 40.7623C34.2773 40.5971 34.6322 40.502 34.9952 40.4832C37.1774 40.4344 39.5061 43.6136 40.1475 45.4612C40.1893 45.5727 40.503 46.9462 40.6634 47.7061C40.8795 47.0089 41.0887 46.2769 41.3606 45.5588C42.0578 43.4672 42.8456 41.4244 43.6125 39.3538C43.8496 38.7193 44.0727 38.0849 44.3097 37.4504C44.0099 37.4504 40.4751 37.0809 39.0529 36.2652C37.791 35.568 36.3826 34.2643 36.1874 32.7305C36.1303 32.3718 36.149 32.0052 36.2426 31.6543C36.3361 31.3034 36.5022 30.9761 36.7303 30.6934C36.9584 30.4108 37.2432 30.1793 37.5665 30.0137C37.8897 29.8482 38.2441 29.7524 38.6067 29.7325C40.7959 29.6837 43.1245 32.8629 43.7659 34.7105C43.8147 34.8499 44.2609 36.802 44.3515 37.3319C44.8535 35.9375 45.3485 34.5431 45.7459 33.1488C46.3355 31.2663 46.8013 29.3472 47.1403 27.4039C47.0009 27.4039 43.3127 27.0553 41.8556 26.2187C40.5867 25.5215 39.1784 24.2178 38.9901 22.6839C38.9318 22.3255 38.9498 21.9588 39.0429 21.6079C39.136 21.2569 39.3022 20.9295 39.5306 20.6472C39.7589 20.3649 40.0443 20.1339 40.3681 19.9695C40.6919 19.8051 41.0467 19.7108 41.4094 19.693C43.5916 19.6372 45.9202 22.8164 46.5616 24.664C46.6035 24.7825 46.952 26.2884 47.0985 27.0135H47.217C47.505 25.0497 47.6169 23.0641 47.5516 21.0804C47.5516 19.9858 47.4471 18.947 47.3425 17.9361C46.6453 17.9361 43.48 17.9361 42.0857 17.3295C40.6913 16.723 39.2063 15.6353 38.8437 14.1364C38.747 13.7852 38.7255 13.4176 38.7807 13.0576C38.8359 12.6976 38.9665 12.3533 39.164 12.0473C39.3614 11.7413 39.6212 11.4804 39.9265 11.2817C40.2317 11.083 40.5755 10.9511 40.9353 10.8944C43.1036 10.5946 45.7668 13.5089 46.6104 15.2658C46.6523 15.3634 47.0148 16.3883 47.2588 17.1413C47.21 16.6811 47.1612 16.207 47.0985 15.7469C46.8823 14.1085 46.5756 12.6235 46.2967 11.3058C46.1294 10.5598 45.969 9.9114 45.8087 9.26301C45.1115 8.91441 42.3785 7.4782 41.4442 6.32086C40.51 5.16353 39.6734 3.4833 40.0499 1.99131C40.1332 1.63898 40.2895 1.30806 40.5088 1.01997C40.7281 0.731885 41.0054 0.493039 41.3228 0.31889C41.6402 0.14474 41.9907 0.0391654 42.3515 0.00899616C42.7123 -0.0211731 43.0754 0.0247356 43.4173 0.143751Z" fill="#92E3A9"/>
<path d="M82.9339 33.8111C81.2258 33.7414 77.8096 31.9915 77.8096 31.9915C77.8096 31.9915 79.6432 30.0881 79.7756 29.9836C81.3025 28.7704 84.9697 27.3133 86.7894 28.5264C87.0868 28.7348 87.3369 29.0037 87.5233 29.3154C87.7097 29.6271 87.8282 29.9747 87.8709 30.3353C87.9137 30.696 87.8798 31.0616 87.7716 31.4083C87.6633 31.7549 87.483 32.0748 87.2426 32.347C86.2665 33.5392 84.391 33.8739 82.9339 33.8111Z" fill="#92E3A9"/>
<g opacity="0.5">
<path d="M47.6493 17.6294C47.6075 17.6294 48.1374 15.0288 48.1862 14.8406C48.7857 12.9791 51.0446 9.74414 53.2269 9.75111C53.5904 9.76136 53.9476 9.84815 54.2753 10.0058C54.603 10.1635 54.8938 10.3885 55.1287 10.6661C55.3635 10.9437 55.5372 11.2678 55.6384 11.6171C55.7396 11.9664 55.766 12.3331 55.7158 12.6933C55.5555 14.2271 54.175 15.5378 52.9271 16.2908C51.463 17.2041 47.6493 17.6294 47.6493 17.6294Z" fill="white"/>
<path d="M43.4173 0.143751C45.5089 0.882774 46.4989 4.68944 46.4292 6.64157C46.4292 6.8089 46.0387 9.43033 46.0039 9.43033H45.962C46.1224 10.0299 46.2967 10.6783 46.471 11.3894C46.7778 12.7002 47.1124 14.1782 47.3704 15.8236C47.6695 17.5861 47.865 19.3647 47.956 21.1501C48.0672 23.1508 47.9995 25.1573 47.7538 27.146C47.7506 27.1691 47.7506 27.1925 47.7538 27.2157C48.0257 26.637 48.8345 25.0335 48.9042 24.9219C49.9779 23.2905 53.0037 20.7388 55.1162 21.3453C55.463 21.4511 55.7837 21.6288 56.0572 21.8669C56.3307 22.105 56.551 22.398 56.7036 22.727C56.8562 23.0559 56.9378 23.4133 56.943 23.7759C56.9481 24.1385 56.8768 24.4981 56.7336 24.8313C56.1759 26.2675 54.5026 27.1669 53.1013 27.5643C51.5187 28.0174 47.9909 27.4876 47.712 27.4388C47.4138 29.4572 46.9806 31.4533 46.4152 33.4137C46.0899 34.5571 45.7366 35.6982 45.3555 36.8369C45.5995 36.3419 45.8296 35.9027 45.8644 35.8469C46.9381 34.2085 49.9709 31.6638 52.0764 32.2703C52.4233 32.3761 52.7439 32.5538 53.0174 32.7919C53.291 33.03 53.5112 33.323 53.6639 33.652C53.8165 33.9809 53.8981 34.3383 53.9032 34.7009C53.9084 35.0635 53.8371 35.4231 53.6939 35.7563C53.1361 37.1925 51.4629 38.0919 50.0615 38.4893C48.6602 38.8867 45.6204 38.4893 44.8256 38.3847L44.3864 39.6954C43.6892 41.787 42.9293 43.8785 42.2948 45.9283C42.0647 46.6255 41.8626 47.3784 41.6604 48.1035C41.8835 47.6643 42.0717 47.2948 42.1066 47.239C43.1733 45.6076 46.2061 43.0559 48.3116 43.6624C48.6578 43.7693 48.9777 43.9476 49.2508 44.1857C49.5239 44.4239 49.7441 44.7166 49.8971 45.045C50.0502 45.3734 50.1327 45.7303 50.1394 46.0926C50.1461 46.4548 50.0768 46.8145 49.936 47.1484C49.3783 48.5915 47.698 49.484 46.2967 49.8883C44.8953 50.2927 42.1554 49.9371 41.2072 49.8047C41.019 50.5506 40.8377 51.2966 40.6913 52.0287C40.6006 52.5376 40.4821 53.0117 40.4194 53.5207L40.2102 55.0196C40.1126 55.9748 40.0011 56.9578 39.9313 57.8921C39.8756 58.5405 39.8337 59.161 39.7919 59.7884C40.015 59.0912 40.4891 57.6481 40.4891 57.5365C41.2612 56.0026 42.4133 54.6921 43.8356 53.7298C43.9114 53.5522 44.0073 53.3837 44.1215 53.2279C44.3188 52.9233 44.5783 52.6637 44.8828 52.4663C45.1874 52.2688 45.5301 52.1378 45.8888 52.0819C46.2474 52.0259 46.6138 52.0463 46.964 52.1417C47.3142 52.237 47.6404 52.4052 47.9211 52.6352C49.5805 54.0645 49.1621 57.9827 48.4022 59.7815C48.3604 59.886 47.7399 60.9806 47.3425 61.6708C47.6423 61.3013 47.9211 60.9388 48.2349 60.5693C48.8414 59.8233 49.4689 59.0982 50.1382 58.3174L51.1631 57.2088C51.4977 56.8323 51.9021 56.5116 52.2716 56.1003C53.1431 55.2567 54.0704 54.441 55.0255 53.6392C54.3771 53.1093 52.0903 51.1851 51.435 49.8744C50.7796 48.5637 50.3125 46.73 50.9958 45.3426C51.146 45.0118 51.3641 44.7162 51.636 44.475C51.9078 44.2338 52.2273 44.0525 52.5737 43.9427C52.9201 43.8329 53.2857 43.7972 53.6469 43.8378C54.008 43.8784 54.3565 43.9944 54.67 44.1783C56.5175 45.3426 56.7057 49.2818 56.2247 51.1502C56.2247 51.2688 55.6948 52.5864 55.409 53.3046C55.9876 52.8305 56.5593 52.3564 57.1589 51.9102C58.888 50.5785 60.6797 49.2748 62.4576 47.9711L64.082 46.7719C63.852 46.5836 61.0911 44.3526 60.3521 42.8816C59.7037 41.5778 59.2296 39.7372 59.9128 38.3568C60.0622 38.0252 60.2799 37.7288 60.5516 37.487C60.8233 37.2452 61.143 37.0634 61.4897 36.9536C61.8365 36.8437 62.2025 36.8082 62.5639 36.8493C62.9252 36.8905 63.2739 37.0074 63.587 37.1925C65.4415 38.3498 65.6228 42.2889 65.1418 44.1644C65.1069 44.3038 64.3888 46.2002 64.1866 46.6743C65.3718 45.7888 66.5501 44.8964 67.6726 43.9622C69.1998 42.7172 70.6438 41.3734 71.9951 39.9394C71.8906 39.8488 68.9972 37.5341 68.2443 36.0351C67.5889 34.7314 67.1218 32.8838 67.805 31.5034C67.9545 31.1728 68.172 30.8773 68.4432 30.6361C68.7144 30.395 69.0332 30.2137 69.3791 30.1038C69.725 29.994 70.0901 29.9582 70.4507 29.9988C70.8113 30.0393 71.1594 30.1552 71.4722 30.3391C73.3268 31.5034 73.515 35.4425 73.034 37.311C73.034 37.4365 72.4553 38.8797 72.1834 39.5629L72.288 39.6326C73.6087 38.1504 74.7962 36.5547 75.8367 34.8639C76.4223 33.9366 76.9243 33.0233 77.3984 32.1239C76.8127 31.7474 74.1704 29.9975 73.3407 28.7216C72.5111 27.4457 71.8836 25.7167 72.4065 24.2666C72.5185 23.9209 72.7022 23.6027 72.9454 23.3327C73.1887 23.0627 73.4861 22.8471 73.8183 22.6997C74.1504 22.5524 74.5099 22.4767 74.8733 22.4776C75.2367 22.4784 75.5958 22.5559 75.9273 22.7048C77.9003 23.66 78.5139 27.5852 78.242 29.4885C78.242 29.5931 77.9631 30.6459 77.7609 31.4058C77.9631 30.9944 78.1862 30.5761 78.3744 30.1787C79.0716 28.6937 79.6642 27.2854 80.1523 25.9956C80.4312 25.2984 80.6612 24.6361 80.8495 24.0225C80.466 23.3253 78.974 20.6481 78.8276 19.1422C78.6812 17.6363 78.9183 15.8096 80.0547 14.7638C80.3134 14.5092 80.6229 14.3119 80.9629 14.1847C81.3029 14.0575 81.6659 14.0034 82.0283 14.0257C82.3906 14.0481 82.7442 14.1465 83.066 14.3145C83.3879 14.4825 83.6707 14.7164 83.8962 15.0009C85.2069 16.7508 83.9589 20.4948 82.8295 22.0843C82.7319 22.2238 80.954 24.1759 80.9331 24.1759V24.1341C80.7379 24.7267 80.5288 25.3611 80.2778 26.0444C79.8176 27.3133 79.2808 28.7356 78.5906 30.2275C77.8609 31.8601 77.0392 33.4499 76.1295 34.9894C75.1143 36.7161 73.9477 38.3493 72.6435 39.8697L72.5947 39.9255C73.1385 39.5908 74.6863 38.6984 74.8188 38.6426C76.6175 37.8757 80.5357 37.4435 81.972 39.0888C82.2031 39.3689 82.3727 39.6944 82.4698 40.0443C82.5668 40.3942 82.5891 40.7606 82.5352 41.1197C82.4812 41.4788 82.3523 41.8225 82.1568 42.1284C81.9612 42.4344 81.7035 42.6957 81.4002 42.8955C80.1383 43.7879 78.2489 43.5927 76.8546 43.1744C75.2859 42.6724 72.6714 40.288 72.4344 40.0928C71.0726 41.612 69.6099 43.0375 68.056 44.3596C67.1566 45.1335 66.2224 45.8864 65.2673 46.6324C65.7483 46.3536 66.1806 46.1095 66.2433 46.0817C68.0351 45.3147 71.9533 44.8825 73.3895 46.5279C73.6217 46.8074 73.7923 47.1329 73.8899 47.483C73.9876 47.8331 74.0101 48.1998 73.9562 48.5592C73.9022 48.9186 73.7729 49.2626 73.5767 49.5685C73.3805 49.8745 73.1219 50.1355 72.8178 50.3345C71.5629 51.2269 69.6665 51.0317 68.2791 50.6134C66.8917 50.1951 64.5701 48.1732 63.9705 47.6364C63.601 47.9153 63.2733 48.2011 62.8759 48.487C61.1259 49.8256 59.3899 51.1572 57.6818 52.5237C57.0892 52.9978 56.5245 53.4928 55.9528 53.9878L56.8034 53.5137C58.5951 52.7468 62.5133 52.3076 63.9496 53.9529C64.1809 54.2335 64.3506 54.5596 64.4477 54.9101C64.5448 55.2605 64.5671 55.6275 64.5132 55.9871C64.4593 56.3467 64.3303 56.691 64.1347 56.9976C63.9391 57.3041 63.6813 57.5661 63.3779 57.7666C62.1229 58.659 60.2266 58.4638 58.8392 58.0385C57.4517 57.6132 55.3532 55.7935 54.656 55.1591C54.0913 55.682 53.5196 56.2049 52.9967 56.7347C52.6411 57.1042 52.2995 57.4319 51.9509 57.8293L50.947 58.9588C50.3404 59.7048 49.7059 60.4647 49.1273 61.2037C48.7229 61.7127 48.3464 62.2077 47.9699 62.7097C48.5486 62.2216 49.7199 61.3153 49.8245 61.2316C51.4768 60.1998 55.2905 59.14 56.9567 60.5902C57.2268 60.8328 57.4427 61.1295 57.5906 61.461C57.7384 61.7925 57.8148 62.1515 57.8148 62.5145C57.8148 62.8774 57.7384 63.2364 57.5906 63.5679C57.4427 63.8994 57.2268 64.1961 56.9567 64.4387C55.8412 65.5124 53.9449 65.6239 52.5087 65.4008C50.9191 65.1498 48.0466 63.3092 47.6911 63.0443C47.0636 63.874 46.464 64.6757 45.9063 65.4496C43.975 68.1199 42.4691 70.4206 41.4373 72.0381L41.3327 72.2054L39.9941 71.557L40.2032 71.2363C41.2839 69.6188 42.8595 67.332 44.8674 64.6827C45.5019 63.8391 46.1921 62.9537 46.9102 62.0543C46.1634 61.2383 45.465 60.3793 44.8186 59.4817C43.2779 60.0882 40.0847 60.1091 39.6664 60.1091C39.6037 61.141 39.5479 62.1519 39.5061 63.1001C39.3666 66.3908 39.3806 69.1378 39.4154 71.062V71.2851L37.9443 70.5879C37.9443 68.6776 38.021 66.098 38.2162 63.0443C38.279 61.9985 38.3696 60.8761 38.4742 59.7257C38.0629 59.6211 34.7373 58.7705 33.4823 57.7666C32.3459 56.8533 31.1467 55.3822 31.1886 53.8344C31.1858 53.4713 31.2595 53.1117 31.4048 52.779C31.5502 52.4462 31.764 52.1478 32.0323 51.9032C32.3007 51.6585 32.6175 51.4731 32.9622 51.359C33.3069 51.2449 33.6718 51.2046 34.0331 51.2409C36.2014 51.5197 38.021 55.0196 38.3766 56.9369C38.3766 57.0554 38.4882 58.3313 38.53 59.0982C38.5788 58.6311 38.6136 58.1709 38.6694 57.7038C38.7601 56.7487 38.8855 55.8005 39.018 54.7756C39.0947 54.2806 39.1784 53.7856 39.2551 53.2836C39.3318 52.7817 39.4642 52.2657 39.5688 51.7498C39.8337 50.5646 40.1544 49.3724 40.51 48.1802C39.6734 48.0965 36.7103 47.7479 35.4414 47.0159C34.1725 46.2838 32.7642 45.015 32.576 43.4811C32.5177 43.1224 32.5357 42.7553 32.6287 42.404C32.7218 42.0526 32.8879 41.7248 33.1162 41.442C33.3444 41.1591 33.6297 40.9275 33.9535 40.7623C34.2773 40.5971 34.6322 40.502 34.9952 40.4832C37.1774 40.4344 39.5061 43.6136 40.1475 45.4612C40.1893 45.5727 40.503 46.9462 40.6634 47.7061C40.8795 47.0089 41.0887 46.2769 41.3606 45.5588C42.0578 43.4672 42.8456 41.4244 43.6125 39.3538C43.8496 38.7193 44.0727 38.0849 44.3097 37.4504C44.0099 37.4504 40.4751 37.0809 39.0529 36.2652C37.791 35.568 36.3826 34.2643 36.1874 32.7305C36.1303 32.3718 36.149 32.0052 36.2426 31.6543C36.3361 31.3034 36.5022 30.9761 36.7303 30.6934C36.9584 30.4108 37.2432 30.1793 37.5665 30.0137C37.8897 29.8482 38.2441 29.7524 38.6067 29.7325C40.7959 29.6837 43.1245 32.8629 43.7659 34.7105C43.8147 34.8499 44.2609 36.802 44.3515 37.3319C44.8535 35.9375 45.3485 34.5431 45.7459 33.1488C46.3355 31.2663 46.8013 29.3472 47.1403 27.4039C47.0009 27.4039 43.3127 27.0553 41.8556 26.2187C40.5867 25.5215 39.1784 24.2178 38.9901 22.6839C38.9318 22.3255 38.9498 21.9588 39.0429 21.6079C39.136 21.2569 39.3022 20.9295 39.5306 20.6472C39.7589 20.3649 40.0443 20.1339 40.3681 19.9695C40.6919 19.8051 41.0467 19.7108 41.4094 19.693C43.5916 19.6372 45.9202 22.8164 46.5616 24.664C46.6035 24.7825 46.952 26.2884 47.0985 27.0135H47.217C47.505 25.0497 47.6169 23.0641 47.5516 21.0804C47.5516 19.9858 47.4471 18.947 47.3425 17.9361C46.6453 17.9361 43.48 17.9361 42.0857 17.3295C40.6913 16.723 39.2063 15.6353 38.8437 14.1364C38.747 13.7852 38.7255 13.4176 38.7807 13.0576C38.8359 12.6976 38.9665 12.3533 39.164 12.0473C39.3614 11.7413 39.6212 11.4804 39.9265 11.2817C40.2317 11.083 40.5755 10.9511 40.9353 10.8944C43.1036 10.5946 45.7668 13.5089 46.6104 15.2658C46.6523 15.3634 47.0148 16.3883 47.2588 17.1413C47.21 16.6811 47.1612 16.207 47.0985 15.7469C46.8823 14.1085 46.5756 12.6235 46.2967 11.3058C46.1294 10.5598 45.969 9.9114 45.8087 9.26301C45.1115 8.91441 42.3785 7.4782 41.4442 6.32086C40.51 5.16353 39.6734 3.4833 40.0499 1.99131C40.1332 1.63898 40.2895 1.30806 40.5088 1.01997C40.7281 0.731885 41.0054 0.493039 41.3228 0.31889C41.6402 0.14474 41.9907 0.0391654 42.3515 0.00899616C42.7123 -0.0211731 43.0754 0.0247356 43.4173 0.143751Z" fill="white"/>
<path d="M82.9339 33.8111C81.2258 33.7414 77.8096 31.9915 77.8096 31.9915C77.8096 31.9915 79.6432 30.0881 79.7756 29.9836C81.3025 28.7704 84.9697 27.3133 86.7894 28.5264C87.0868 28.7348 87.3369 29.0037 87.5233 29.3154C87.7097 29.6271 87.8282 29.9747 87.8709 30.3353C87.9137 30.696 87.8798 31.0616 87.7716 31.4083C87.6633 31.7549 87.483 32.0748 87.2426 32.347C86.2665 33.5392 84.391 33.8739 82.9339 33.8111Z" fill="white"/>
</g>
<path d="M62.9872 76.5907C62.9872 76.5907 52.62 51.6034 46.8194 52.691C41.0187 53.7786 56.7683 92.5285 56.7683 92.5285C56.7683 92.5285 38.5298 58.1221 26.0919 58.1221C13.654 58.1221 30.6515 96.1469 46.4429 108.822C46.4429 108.822 21.5671 82.0218 7.05856 87.8155C-7.44998 93.6091 36.0408 120.758 36.0408 120.758C36.0408 120.758 10.7537 112.803 13.6749 118.966C16.5961 125.129 24.4535 126.203 24.4535 126.203L31.1047 127.653H67.3586L72.9361 125.485C72.9361 125.485 96.1526 113.89 89.9336 109.184C83.7147 104.478 70.0358 114.615 70.0358 114.615C70.0358 114.615 93.6636 88.5406 89.104 78.7659C84.5443 68.9913 64.2282 96.5095 64.2282 96.5095C64.2282 96.5095 80.8144 61.378 77.4748 55.2218C74.1353 49.0656 62.9872 76.5907 62.9872 76.5907Z" fill="#92E3A9"/>
<path opacity="0.4" d="M62.9872 76.5907C62.9872 76.5907 52.62 51.6034 46.8194 52.691C41.0187 53.7786 56.7683 92.5285 56.7683 92.5285C56.7683 92.5285 38.5298 58.1221 26.0919 58.1221C13.654 58.1221 30.6515 96.1469 46.4429 108.822C46.4429 108.822 21.5671 82.0218 7.05856 87.8155C-7.44998 93.6091 36.0408 120.758 36.0408 120.758C36.0408 120.758 10.7537 112.803 13.6749 118.966C16.5961 125.129 24.4535 126.203 24.4535 126.203L35.2878 127.653H64.5698L72.9361 125.485C72.9361 125.485 96.1526 113.89 89.9336 109.184C83.7147 104.478 70.0358 114.615 70.0358 114.615C70.0358 114.615 93.6636 88.5406 89.104 78.7659C84.5443 68.9913 64.2282 96.5095 64.2282 96.5095C64.2282 96.5095 80.8144 61.378 77.4748 55.2218C74.1353 49.0656 62.9872 76.5907 62.9872 76.5907Z" fill="white"/>
<path d="M66.3058 77.9084C57.1865 104.855 57.1865 123.923 57.1865 123.923C57.1865 123.923 67.9651 124.341 79.155 116.045" stroke="#263238" stroke-width="0.645962" stroke-linecap="round" stroke-linejoin="round"/>
<path d="M61.7809 92.417C59.8992 84.3619 57.4029 76.4628 54.314 68.7892" stroke="#263238" stroke-width="0.645962" stroke-linecap="round" stroke-linejoin="round"/>
<path d="M34.7998 76.6604L58.0093 111.074C58.0093 111.074 73.7658 97.8271 79.1551 90.3463" stroke="#263238" stroke-width="0.645962" stroke-linecap="round" stroke-linejoin="round"/>
<path d="M57.5983 119.363C57.5983 119.363 33.1408 107.755 23.1919 101.125" stroke="#263238" stroke-width="0.645962" stroke-linecap="round" stroke-linejoin="round"/>
<path d="M131.228 20.8015H126.188V230.858H131.228V20.8015Z" fill="#C2C2C2" stroke="#ABABAB" stroke-width="0.645962" stroke-linecap="round" stroke-linejoin="round"/>
<path d="M40.5519 20.8015H35.5112V230.858H40.5519V20.8015Z" fill="#C2C2C2" stroke="#ABABAB" stroke-width="0.645962" stroke-linecap="round" stroke-linejoin="round"/>
<path d="M85.8903 20.8015H80.8496V230.858H85.8903V20.8015Z" fill="#C2C2C2" stroke="#ABABAB" stroke-width="0.645962" stroke-linecap="round" stroke-linejoin="round"/>
<path d="M176.56 20.8015H171.519V230.858H176.56V20.8015Z" fill="#C2C2C2" stroke="#ABABAB" stroke-width="0.645962" stroke-linecap="round" stroke-linejoin="round"/>
<path d="M175.047 27.3481H33.8867V36.9206H175.047V27.3481Z" fill="#C2C2C2" stroke="#ABABAB" stroke-width="0.645962" stroke-linecap="round" stroke-linejoin="round"/>
<path d="M175.047 27.3481H84.2026V36.9206H175.047V27.3481Z" fill="#A6A6A6" stroke="#ABABAB" stroke-width="0.645962" stroke-linecap="round" stroke-linejoin="round"/>
<path d="M175.047 123.735H33.8867V133.307H175.047V123.735Z" fill="#C2C2C2" stroke="#ABABAB" stroke-width="0.645962" stroke-linecap="round" stroke-linejoin="round"/>
<path d="M175.047 123.735H84.2026V133.307H175.047V123.735Z" fill="#A6A6A6" stroke="#ABABAB" stroke-width="0.645962" stroke-linecap="round" stroke-linejoin="round"/>
<path d="M175.047 220.115H33.8867V229.687H175.047V220.115Z" fill="#C2C2C2" stroke="#ABABAB" stroke-width="0.645962" stroke-linecap="round" stroke-linejoin="round"/>
<path d="M175.047 220.115H84.2026V229.687H175.047V220.115Z" fill="#A6A6A6" stroke="#ABABAB" stroke-width="0.645962" stroke-linecap="round" stroke-linejoin="round"/>
<path d="M84.2235 168.724H10.3491V230.781H84.2235V168.724Z" fill="#92E3A9"/>
<path opacity="0.6" d="M84.2235 168.724H10.3491V230.781H84.2235V168.724Z" fill="white" stroke="#696969" stroke-width="0.645962" stroke-linecap="round" stroke-linejoin="round"/>
<path d="M84.2235 168.724H10.3491V230.781H84.2235V168.724Z" stroke="#696969" stroke-width="0.645962" stroke-linecap="round" stroke-linejoin="round"/>
<path d="M84.2239 168.724H59.6758V230.781H84.2239V168.724Z" fill="#92E3A9"/>
<path opacity="0.39" d="M84.2239 168.724H59.6758V230.781H84.2239V168.724Z" fill="white" stroke="#696969" stroke-width="0.645962" stroke-linecap="round" stroke-linejoin="round"/>
<path d="M84.2239 168.724H59.6758V230.781H84.2239V168.724Z" stroke="#696969" stroke-width="0.645962" stroke-linecap="round" stroke-linejoin="round"/>
<path d="M72.2046 168.892V230.858" stroke="#696969" stroke-width="0.645962" stroke-linecap="round" stroke-linejoin="round"/>
<path d="M87.9539 106.765H14.0796V168.822H87.9539V106.765Z" fill="#92E3A9"/>
<path opacity="0.6" d="M87.9539 106.765H14.0796V168.822H87.9539V106.765Z" fill="white" stroke="#696969" stroke-width="0.645962" stroke-linecap="round" stroke-linejoin="round"/>
<path d="M87.9539 106.765H14.0796V168.822H87.9539V106.765Z" stroke="#696969" stroke-width="0.645962" stroke-linecap="round" stroke-linejoin="round"/>
<path d="M87.9538 106.765H63.4058V168.822H87.9538V106.765Z" fill="#92E3A9"/>
<path opacity="0.39" d="M87.9538 106.765H63.4058V168.822H87.9538V106.765Z" fill="white" stroke="#696969" stroke-width="0.645962" stroke-linecap="round" stroke-linejoin="round"/>
<path d="M87.9538 106.765H63.4058V168.822H87.9538V106.765Z" stroke="#696969" stroke-width="0.645962" stroke-linecap="round" stroke-linejoin="round"/>
<path d="M75.9341 106.932V168.899" stroke="#696969" stroke-width="0.645962" stroke-linecap="round" stroke-linejoin="round"/>
<path d="M280.197 168.724H206.323V230.781H280.197V168.724Z" fill="#92E3A9"/>
<path opacity="0.6" d="M280.198 168.724H206.323V230.781H280.198V168.724Z" fill="white" stroke="#919191" stroke-width="0.645962" stroke-linecap="round" stroke-linejoin="round"/>
<path d="M280.197 168.724H206.323V230.781H280.197V168.724Z" stroke="#919191" stroke-width="0.645962" stroke-linecap="round" stroke-linejoin="round"/>
<path d="M280.197 168.724H255.649V230.781H280.197V168.724Z" fill="#92E3A9"/>
<path opacity="0.39" d="M280.197 168.724H255.649V230.781H280.197V168.724Z" fill="white" stroke="#919191" stroke-width="0.645962" stroke-linecap="round" stroke-linejoin="round"/>
<path d="M280.197 168.724H255.649V230.781H280.197V168.724Z" stroke="#919191" stroke-width="0.645962" stroke-linecap="round" stroke-linejoin="round"/>
<path d="M268.177 168.892V230.858" stroke="#919191" stroke-width="0.645962" stroke-linecap="round" stroke-linejoin="round"/>
<path d="M280.197 106.605H206.323V168.662H280.197V106.605Z" fill="#92E3A9"/>
<path opacity="0.6" d="M280.198 106.605H206.323V168.662H280.198V106.605Z" fill="white" stroke="#919191" stroke-width="0.645962" stroke-linecap="round" stroke-linejoin="round"/>
<path d="M280.197 106.605H206.323V168.662H280.197V106.605Z" stroke="#919191" stroke-width="0.645962" stroke-linecap="round" stroke-linejoin="round"/>
<path d="M280.197 106.605H255.649V168.662H280.197V106.605Z" fill="#92E3A9"/>
<path opacity="0.39" d="M280.197 106.605H255.649V168.662H280.197V106.605Z" fill="white" stroke="#919191" stroke-width="0.645962" stroke-linecap="round" stroke-linejoin="round"/>
<path d="M280.197 106.605H255.649V168.662H280.197V106.605Z" stroke="#919191" stroke-width="0.645962" stroke-linecap="round" stroke-linejoin="round"/>
<path d="M268.177 106.772V168.738" stroke="#919191" stroke-width="0.645962" stroke-linecap="round" stroke-linejoin="round"/>
<path d="M273.706 55.2218H212.598V106.556H273.706V55.2218Z" fill="#92E3A9"/>
<path opacity="0.6" d="M273.706 55.2219H212.598V106.556H273.706V55.2219Z" fill="white" stroke="#919191" stroke-width="0.645962" stroke-linecap="round" stroke-linejoin="round"/>
<path d="M273.706 55.2218H212.598V106.556H273.706V55.2218Z" stroke="#919191" stroke-width="0.645962" stroke-linecap="round" stroke-linejoin="round"/>
<path d="M273.706 55.2218H253.404V106.556H273.706V55.2218Z" fill="#92E3A9"/>
<path opacity="0.39" d="M273.706 55.2219H253.404V106.556H273.706V55.2219Z" fill="white" stroke="#919191" stroke-width="0.645962" stroke-linecap="round" stroke-linejoin="round"/>
<path d="M273.706 55.2218H253.404V106.556H273.706V55.2218Z" stroke="#919191" stroke-width="0.645962" stroke-linecap="round" stroke-linejoin="round"/>
<path d="M263.764 55.3612V106.619" stroke="#919191" stroke-width="0.645962" stroke-linecap="round" stroke-linejoin="round"/>
<path d="M265.891 207.453H256.318V213.442H265.891V207.453Z" fill="white" stroke="#263238" stroke-width="0.645962" stroke-linecap="round" stroke-linejoin="round"/>
<path d="M175.814 230.858C179.01 230.858 181.601 228.267 181.601 225.071C181.601 221.876 179.01 219.285 175.814 219.285C172.618 219.285 170.027 221.876 170.027 225.071C170.027 228.267 172.618 230.858 175.814 230.858Z" fill="#263238" stroke="#263238" stroke-width="0.645962" stroke-linecap="round" stroke-linejoin="round"/>
<path d="M271.036 129.291H267.62V225.204H271.036V129.291Z" fill="#263238" stroke="#263238" stroke-width="0.645962" stroke-linecap="round" stroke-linejoin="round"/>
<path d="M269.216 162.84L261.136 156.412C257.699 153.673 255.121 150.005 253.708 145.844C252.295 141.682 252.107 137.203 253.167 132.938C253.478 131.693 254.196 130.587 255.206 129.795C256.216 129.004 257.461 128.571 258.744 128.566H279.66C280.944 128.569 282.19 129 283.201 129.793C284.211 130.585 284.928 131.692 285.238 132.938C286.298 137.202 286.112 141.681 284.701 145.843C283.289 150.005 280.712 153.673 277.276 156.412L269.216 162.84ZM258.758 131.836C258.2 131.834 257.657 132.02 257.217 132.364C256.777 132.708 256.465 133.19 256.332 133.732C255.421 137.388 255.58 141.228 256.79 144.795C258 148.363 260.211 151.507 263.157 153.853L269.202 158.664L275.254 153.853C278.202 151.507 280.414 148.364 281.626 144.797C282.839 141.229 283.001 137.389 282.093 133.732C281.959 133.191 281.647 132.709 281.207 132.366C280.768 132.022 280.225 131.835 279.667 131.836H258.758Z" fill="#263238"/>
<path d="M249.158 210.451H143.373V222.764H249.158V210.451Z" fill="white"/>
<path opacity="0.28" d="M249.158 210.451H143.373V222.764H249.158V210.451Z" fill="black" stroke="#263238" stroke-width="0.645962" stroke-linecap="round" stroke-linejoin="round"/>
<path d="M249.158 210.451H143.373V222.764H249.158V210.451Z" stroke="#263238" stroke-width="0.645962" stroke-linecap="round" stroke-linejoin="round"/>
<path d="M155.225 210.451H143.373V222.764H155.225V210.451Z" stroke="#263238" stroke-width="0.645962" stroke-linecap="round" stroke-linejoin="round"/>
<path d="M249.151 210.451H237.299V222.764H249.151V210.451Z" stroke="#263238" stroke-width="0.645962" stroke-linecap="round" stroke-linejoin="round"/>
<path d="M202.188 210.451H190.336V222.764H202.188V210.451Z" stroke="#263238" stroke-width="0.645962" stroke-linecap="round" stroke-linejoin="round"/>
<path d="M249.158 222.764H256.451L265.57 188.106H258.277L249.158 222.764Z" fill="white" stroke="#263238" stroke-width="0.645962" stroke-linecap="round" stroke-linejoin="round"/>
<path d="M274.117 202.699H264.545V218.204H274.117V202.699Z" fill="white" stroke="#263238" stroke-width="0.645962" stroke-linecap="round" stroke-linejoin="round"/>
<path d="M266.985 230.858C266.443 230.849 265.925 230.63 265.541 230.246C265.157 229.862 264.938 229.344 264.929 228.801V221.083C264.938 220.541 265.157 220.023 265.541 219.639C265.925 219.255 266.443 219.036 266.985 219.027C267.528 219.036 268.046 219.255 268.43 219.639C268.814 220.023 269.033 220.541 269.042 221.083V228.822C269.028 229.361 268.806 229.874 268.423 230.253C268.039 230.633 267.525 230.849 266.985 230.858Z" fill="#263238"/>
<path d="M271.873 230.858C271.33 230.849 270.813 230.63 270.429 230.246C270.045 229.862 269.825 229.344 269.816 228.801V221.083C269.825 220.541 270.045 220.023 270.429 219.639C270.813 219.255 271.33 219.036 271.873 219.027C272.422 219.027 272.949 219.242 273.34 219.627C273.731 220.012 273.956 220.535 273.965 221.083V228.822C273.95 229.367 273.723 229.885 273.333 230.265C272.942 230.646 272.418 230.858 271.873 230.858Z" fill="#263238"/>
<path d="M1 230.858H289.505" stroke="#263238" stroke-width="0.645962" stroke-linecap="round" stroke-linejoin="round"/>
<path d="M100.537 251C128.353 251 150.902 248.259 150.902 244.879C150.902 241.498 128.353 238.757 100.537 238.757C72.7216 238.757 50.1724 241.498 50.1724 244.879C50.1724 248.259 72.7216 251 100.537 251Z" fill="#92E3A9"/>
<path opacity="0.5" d="M100.537 251C128.353 251 150.902 248.259 150.902 244.879C150.902 241.498 128.353 238.757 100.537 238.757C72.7216 238.757 50.1724 241.498 50.1724 244.879C50.1724 248.259 72.7216 251 100.537 251Z" fill="white"/>
<path d="M204.761 244.858C204.761 246.545 193.515 247.911 179.662 247.911C165.809 247.911 154.563 246.517 154.563 244.858C154.563 243.198 165.802 241.811 179.662 241.811C193.522 241.811 204.761 243.198 204.761 244.858Z" fill="#92E3A9"/>
<path opacity="0.5" d="M204.761 244.858C204.761 246.545 193.515 247.911 179.662 247.911C165.809 247.911 154.563 246.517 154.563 244.858C154.563 243.198 165.802 241.811 179.662 241.811C193.522 241.811 204.761 243.198 204.761 244.858Z" fill="white"/>
<path d="M110.584 43.2232C110.584 43.2232 106.687 40.1625 102.218 41.6894C97.7486 43.2162 94.3602 50.6622 93.1541 56.7138C91.948 62.7654 87.3116 67.353 88.4272 74.4504C89.5427 81.5478 97.6092 82.6563 107.349 83.7021C117.089 84.7479 122.373 83.5627 126.961 77.1624C131.548 70.7622 129.603 62.9746 126.891 56.0864C124.179 49.1981 119.661 42.8049 115.903 41.6196C112.146 40.4344 110.584 43.2232 110.584 43.2232Z" fill="#263238" stroke="#263238" stroke-width="0.645962" stroke-linecap="round" stroke-linejoin="round"/>
<path d="M94.479 79.6235C95.1366 79.9193 95.8206 80.1527 96.5218 80.3207" stroke="white" stroke-width="0.645962" stroke-linecap="round" stroke-linejoin="round"/>
<path d="M109.608 48.1802C108.019 51.7291 106.006 55.0722 103.612 58.1361C99.6242 63.2604 90.8047 68.0989 90.24 73.4743C90.1492 74.1939 90.2123 74.9247 90.425 75.6182C90.6378 76.3116 90.9953 76.9521 91.474 77.4971" stroke="white" stroke-width="0.645962" stroke-linecap="round" stroke-linejoin="round"/>
<path d="M125.79 73.8856C125.501 74.5604 125.131 75.1973 124.688 75.782" stroke="white" stroke-width="0.645962" stroke-linecap="round" stroke-linejoin="round"/>
<path d="M122.437 60.4159C122.437 60.4159 126.919 65.589 126.487 71.1108" stroke="white" stroke-width="0.645962" stroke-linecap="round" stroke-linejoin="round"/>
<path d="M108.758 45.3287C107.011 45.1509 105.246 45.3942 103.612 46.0383C101.978 46.6824 100.522 47.7085 99.3666 49.0308C99.2063 49.2121 99.0598 49.3934 98.9204 49.5746" stroke="white" stroke-width="0.645962" stroke-linecap="round" stroke-linejoin="round"/>
<path d="M83.0379 176.742L82.1664 190.156C82.1664 190.156 78.4574 208.151 77.2861 215.569C76.1148 222.987 73.9675 234.267 73.577 234.267C73.1866 234.267 66.7864 238.137 64.7367 241.295C62.6869 244.453 65.2874 245.792 68.132 244.781C70.9765 243.77 74.839 240.912 76.1009 237.516C77.3628 234.121 77.9903 232.859 78.0739 232.308C78.1576 231.758 91.6482 195.538 92.9868 191.669C94.3254 187.8 97.17 176.435 97.17 176.435L103.8 153.944C103.8 153.944 110.898 177.07 110.981 178.095C111.065 179.12 118.316 238.227 118.65 240.438C118.985 242.648 118.887 244.223 120.226 244.697C121.565 245.171 124.723 245.172 126.382 245.172C128.042 245.172 133.8 246.043 136.638 245.332C139.476 244.621 139.796 244.147 137.823 242.724C135.85 241.302 124.89 240.396 123.879 236.254C123.796 235.941 123.719 175.097 123.719 175.097C123.719 175.097 122.771 154.976 121.195 149.301H84.7321L83.0379 176.742Z" fill="white" stroke="#263238" stroke-width="0.645962" stroke-linecap="round" stroke-linejoin="round"/>
<path d="M68.1249 244.767C70.9625 243.735 74.8319 240.898 76.0938 237.502L76.3587 236.805C74.7482 238.52 72.1756 240.905 72.1756 240.905C72.0179 240.096 71.6662 239.337 71.1507 238.695C70.9258 238.446 70.6377 238.264 70.3171 238.167C69.9966 238.07 69.6558 238.062 69.331 238.144L72.1198 235.076C70.0282 236.373 66.2634 239.022 64.7853 241.302C62.6728 244.446 65.2664 245.792 68.1249 244.767Z" fill="#263238" stroke="#263238" stroke-width="0.645962" stroke-linecap="round" stroke-linejoin="round"/>
<path d="M137.774 242.71C136.422 241.741 130.865 241.009 127.156 239.315C127.003 239.445 126.883 239.61 126.807 239.796C126.572 240.464 126.388 241.15 126.257 241.846L118.587 240.207V240.424C118.901 242.634 118.824 244.209 120.163 244.683C121.502 245.158 124.66 245.158 126.319 245.158C127.979 245.158 133.737 246.029 136.575 245.318C139.412 244.607 139.775 244.161 137.774 242.71Z" fill="#263238" stroke="#263238" stroke-width="0.645962" stroke-linecap="round" stroke-linejoin="round"/>
<path d="M93.663 116.575C93.663 116.575 90.0445 118.241 85.6662 126.105C80.8765 134.688 81.6992 139.457 81.6295 149.81C81.5597 160.163 81.3506 177.349 81.3506 177.349C81.3506 177.349 94.5972 180.898 104.1 180.34C113.603 179.782 125.657 177.628 125.657 177.628C125.657 177.628 123.084 142.573 120.651 132.492C118.218 122.41 116.754 117.851 116.754 117.851C112.051 118.503 107.286 118.573 102.566 118.06C94.4996 117.272 93.663 116.575 93.663 116.575Z" fill="#263238" stroke="#263238" stroke-width="0.645962" stroke-linecap="round" stroke-linejoin="round"/>
<path d="M108.904 147.579C109.266 148.771 109.601 149.977 109.894 151.183" stroke="white" stroke-width="0.645962" stroke-linecap="round" stroke-linejoin="round"/>
<path d="M100.503 127.848C103.311 133.031 105.721 138.419 107.712 143.967" stroke="white" stroke-width="0.645962" stroke-linecap="round" stroke-linejoin="round"/>
<path d="M182.478 109.91C182.06 109.631 175.207 108.557 175.207 108.557L173.868 108.006C173.868 108.006 182.165 108.669 182.234 108.32C182.304 107.971 182.583 107.553 182.025 107.483C181.467 107.414 170.793 105.245 170.793 105.245C170.793 105.245 173.506 102.68 173.854 102.122C174.203 101.564 174.684 100.449 174.126 100.449C173.568 100.449 173.429 100.797 172.669 101.285C171.909 101.773 168.911 102.959 168.074 103.649C167.238 104.339 164.742 106.152 164.742 106.152L135.753 102.164C135.753 102.164 125.574 89.6143 123.364 86.9371C121.827 85.1504 120.078 83.5583 118.156 82.1962C116.022 81.255 116.064 82.8306 116.064 82.8306L120.519 102.631C120.519 102.631 132.044 109.498 132.755 109.498C133.466 109.498 164.602 110.53 164.602 110.53C164.602 110.53 166.694 111.506 168.005 112.336C169.315 113.165 177.675 115.822 177.675 115.822C177.675 115.822 178.233 115.543 177.605 115.055C176.978 114.567 172.948 112.622 172.948 112.622L181.314 114.434C181.314 114.434 181.802 114.086 181.593 113.737C181.384 113.388 173.924 110.537 173.924 110.537L182.29 110.955C182.29 110.955 182.89 110.188 182.478 109.91Z" fill="white" stroke="#263238" stroke-width="0.645962" stroke-linecap="round" stroke-linejoin="round"/>
<path d="M134.003 100.009C130.998 96.3073 124.995 88.9171 123.364 86.9371C121.827 85.1504 120.078 83.5583 118.156 82.1962C116.022 81.255 116.064 82.8306 116.064 82.8306L120.519 102.631C120.519 102.631 125.72 105.726 129.346 107.762L134.003 100.009Z" fill="white" stroke="#263238" stroke-width="0.645962" stroke-linecap="round" stroke-linejoin="round"/>
<path d="M103.194 80.5019C103.194 80.5019 97.1423 80.7808 93.4333 84.8873C89.7242 88.9937 90.1635 98.0293 91.6973 103.453C93.2311 108.878 95.1832 111.869 94.7579 113.751C94.3327 115.633 92.8128 116.254 93.6424 117.99C94.4721 119.726 99.2757 121.608 107.761 121.329C116.245 121.051 117.849 119.238 117.919 117.648C117.988 116.059 117.361 114.727 117.57 113.751C117.779 112.775 123.901 107.351 123.901 101.369C123.901 95.387 121.258 93.3024 120.631 88.9868C120.003 84.6711 120.212 84.0507 117.64 82.1682C115.067 80.2858 106.603 79.3167 103.194 80.5019Z" fill="white" stroke="#263238" stroke-width="0.645962" stroke-linecap="round" stroke-linejoin="round"/>
<path d="M100.448 101.236C98.4249 102.929 96.18 104.336 93.7754 105.42" stroke="#263238" stroke-width="0.645962" stroke-linecap="round" stroke-linejoin="round"/>
<path d="M101.116 101.934C101.116 101.934 99.6171 106.772 95.9429 109.442" stroke="#263238" stroke-width="0.645962" stroke-linecap="round" stroke-linejoin="round"/>
<path d="M116.134 84.8804L116.831 91.5595L113.903 88.1502L116.134 84.8804Z" fill="white" stroke="#263238" stroke-width="0.645962" stroke-linecap="round" stroke-linejoin="round"/>
<path d="M112.236 92.1171L116.134 84.8803L112.585 81.0597L112.236 92.1171Z" fill="white" stroke="#263238" stroke-width="0.645962" stroke-linecap="round" stroke-linejoin="round"/>
<path d="M104.728 68.6776C105.335 71.089 105.637 73.5672 105.627 76.0539C105.607 77.6641 105.443 79.2693 105.139 80.8506L112.236 92.1172L114.251 81.6593L115.576 74.4225C115.576 74.4225 107.509 73.9623 104.728 68.6776Z" fill="white" stroke="#263238" stroke-width="0.645962" stroke-linecap="round" stroke-linejoin="round"/>
<path d="M111.818 86.0656L112.236 92.1172L110.152 88.8473L111.818 86.0656Z" fill="white" stroke="#263238" stroke-width="0.645962" stroke-linecap="round" stroke-linejoin="round"/>
<path d="M102.776 80.5718L109.246 92.187L111.818 86.0656L104.937 76.6047L102.776 80.5718Z" fill="white" stroke="#263238" stroke-width="0.645962" stroke-linecap="round" stroke-linejoin="round"/>
<path d="M216.125 85.9889H157.415V134.165H216.125V85.9889Z" fill="#92E3A9"/>
<path opacity="0.2" d="M216.125 85.9889H157.415V134.165H216.125V85.9889Z" fill="black"/>
<path d="M216.125 85.9889H157.415V134.165H216.125V85.9889Z" stroke="#263238" stroke-width="0.645962" stroke-linecap="round" stroke-linejoin="round"/>
<path d="M203.694 85.9889H144.984V134.165H203.694V85.9889Z" fill="#92E3A9" stroke="#263238" stroke-width="0.645962" stroke-linecap="round" stroke-linejoin="round"/>
<path d="M225.795 150.381C223.912 147.397 216.125 134.165 216.125 134.165H203.701L210.094 150.381H225.795Z" fill="#92E3A9"/>
<path opacity="0.2" d="M225.795 150.381C223.912 147.397 216.125 134.165 216.125 134.165H203.701L210.094 150.381H225.795Z" fill="black"/>
<path d="M225.795 150.381C223.912 147.397 216.125 134.165 216.125 134.165H203.701L210.094 150.381H225.795Z" stroke="#263238" stroke-width="0.645962" stroke-linecap="round" stroke-linejoin="round"/>
<path d="M135.279 150.381C137.161 147.397 144.942 134.165 144.942 134.165H157.373L150.98 150.381H135.279Z" fill="#92E3A9" stroke="#263238" stroke-width="0.645962" stroke-linecap="round" stroke-linejoin="round"/>
<path d="M144.942 134.165L139.539 150.381H200.857L203.701 134.165H144.942Z" fill="#92E3A9" stroke="#263238" stroke-width="0.645962" stroke-linecap="round" stroke-linejoin="round"/>
<path d="M223.683 103.419V119.552" stroke="#263238" stroke-width="0.645962" stroke-linecap="round" stroke-linejoin="round"/>
<path d="M226.736 110.398V123.477" stroke="#263238" stroke-width="0.645962" stroke-linecap="round" stroke-linejoin="round"/>
<path d="M138.674 119.552V129.577" stroke="#263238" stroke-width="0.645962" stroke-linecap="round" stroke-linejoin="round"/>
<path d="M136.06 125.22V133.063" stroke="#263238" stroke-width="0.645962" stroke-linecap="round" stroke-linejoin="round"/>
<path d="M93.1055 97.8203C95.1861 100.177 97.6008 102.216 100.273 103.872C104.456 106.375 119.794 115.069 121 115.557C122.206 116.045 158.837 110.063 158.837 110.063C158.837 110.063 160.928 111.039 162.246 111.869C163.564 112.698 171.916 115.355 171.916 115.355C171.916 115.355 172.474 115.076 171.846 114.595C171.219 114.114 167.189 112.155 167.189 112.155L175.555 113.967C175.555 113.967 176.043 113.619 175.834 113.27C175.625 112.921 168.165 110.07 168.165 110.07L176.531 110.488C176.531 110.488 177.159 109.721 176.74 109.442C176.322 109.164 167.754 107.211 167.754 107.211C167.754 107.211 176.866 106.445 176.936 106.096C177.005 105.747 177.284 105.336 176.727 105.266C176.169 105.197 164.763 104.081 164.763 104.081C164.763 104.081 167.754 102.206 168.102 101.648C168.451 101.09 168.939 99.9746 168.381 99.9746C167.823 99.9746 167.684 100.323 166.924 100.811C166.164 101.299 163.166 102.484 162.33 103.175C161.493 103.865 158.99 105.685 158.99 105.685L125.469 105.754L104.658 89.3354" fill="white"/>
<path d="M93.1055 97.8203C95.1861 100.177 97.6008 102.216 100.273 103.872C104.456 106.375 119.794 115.069 121 115.557C122.206 116.045 158.837 110.063 158.837 110.063C158.837 110.063 160.928 111.039 162.246 111.869C163.564 112.698 171.916 115.355 171.916 115.355C171.916 115.355 172.474 115.076 171.846 114.595C171.219 114.114 167.189 112.155 167.189 112.155L175.555 113.967C175.555 113.967 176.043 113.619 175.834 113.27C175.625 112.921 168.165 110.07 168.165 110.07L176.531 110.488C176.531 110.488 177.159 109.721 176.74 109.442C176.322 109.164 167.754 107.211 167.754 107.211C167.754 107.211 176.866 106.445 176.936 106.096C177.005 105.747 177.284 105.336 176.727 105.266C176.169 105.197 164.763 104.081 164.763 104.081C164.763 104.081 167.754 102.206 168.102 101.648C168.451 101.09 168.939 99.9746 168.381 99.9746C167.823 99.9746 167.684 100.323 166.924 100.811C166.164 101.299 163.166 102.484 162.33 103.175C161.493 103.865 158.99 105.685 158.99 105.685L125.469 105.754L104.658 89.3354" stroke="#263238" stroke-width="0.645962" stroke-linecap="round" stroke-linejoin="round"/>
<path d="M176.713 105.266C176.162 105.197 164.749 104.081 164.749 104.081C164.749 104.081 167.74 102.206 168.088 101.648C168.437 101.09 168.925 99.9746 168.367 99.9746C167.809 99.9746 167.67 100.323 166.91 100.811C166.15 101.299 163.152 102.484 162.316 103.175C161.479 103.865 158.976 105.685 158.976 105.685L125.455 105.754L121.739 102.805C120.345 105.252 117.737 109.84 116.043 112.866C118.65 114.316 120.624 115.396 121.021 115.557C122.206 116.045 158.857 110.063 158.857 110.063C158.857 110.063 160.949 111.039 162.267 111.869C163.584 112.698 171.937 115.355 171.937 115.355C171.937 115.355 172.495 115.076 171.867 114.595C171.24 114.114 167.21 112.155 167.21 112.155L175.576 113.967C175.576 113.967 176.064 113.619 175.855 113.27C175.646 112.921 168.186 110.07 168.186 110.07L176.552 110.488C176.552 110.488 177.18 109.721 176.761 109.442C176.343 109.164 167.754 107.211 167.754 107.211C167.754 107.211 176.866 106.445 176.936 106.096C177.005 105.747 177.27 105.336 176.713 105.266Z" fill="white" stroke="#263238" stroke-width="0.645962" stroke-linecap="round" stroke-linejoin="round"/>
<path d="M120.582 62.8352C120.701 62.6909 120.858 62.583 121.035 62.5236C121.212 62.4643 121.402 62.456 121.584 62.4996C121.766 62.5432 121.932 62.637 122.062 62.7703C122.193 62.9036 122.284 63.0711 122.325 63.2535C122.441 64.0098 122.402 64.7819 122.211 65.5227C122.019 66.2634 121.678 66.9574 121.209 67.5621C120.442 68.3291 119.745 68.5382 119.745 67.5621C119.939 65.9726 120.218 64.3946 120.582 62.8352Z" fill="white" stroke="#263238" stroke-width="0.645962" stroke-linecap="round" stroke-linejoin="round"/>
<path d="M112.02 50.6483C111.776 54.0413 110.324 57.2344 107.928 59.6491C105.695 61.8442 103.171 63.721 100.426 65.2266C100.426 65.2266 100.83 67.4088 101.653 68.092C102.476 68.7753 104.107 68.6428 104.107 68.6428C105.055 71.236 106.598 73.5712 108.611 75.4613C111.881 78.4593 115.701 78.1874 117.883 73.6905C120.066 69.1936 121.16 64.6828 120.888 62.0892L120.616 59.4957C120.616 59.4957 113.519 55.5565 112.02 50.6483Z" fill="white" stroke="#263238" stroke-width="0.645962" stroke-linecap="round" stroke-linejoin="round"/>
<path d="M111.609 64.1319C111.955 64.1319 112.236 63.6325 112.236 63.0164C112.236 62.4003 111.955 61.9009 111.609 61.9009C111.262 61.9009 110.981 62.4003 110.981 63.0164C110.981 63.6325 111.262 64.1319 111.609 64.1319Z" fill="#263238"/>
<path d="M115.018 73.0351C115.365 73.0351 115.646 72.5357 115.646 71.9196C115.646 71.3035 115.365 70.8041 115.018 70.8041C114.672 70.8041 114.391 71.3035 114.391 71.9196C114.391 72.5357 114.672 73.0351 115.018 73.0351Z" fill="#263238"/>
<path d="M117.661 64.1319C118.008 64.1319 118.289 63.6325 118.289 63.0164C118.289 62.4003 118.008 61.9009 117.661 61.9009C117.315 61.9009 117.034 62.4003 117.034 63.0164C117.034 63.6325 117.315 64.1319 117.661 64.1319Z" fill="#263238"/>
<path d="M116.406 61.8312C116.166 62.6664 116.095 63.5409 116.197 64.4038C116.406 65.589 117.382 67.6039 116.545 67.9525C116.163 68.1267 115.741 68.1927 115.324 68.1436C114.908 68.0944 114.512 67.9319 114.182 67.6736" stroke="#263238" stroke-width="0.645962" stroke-linecap="round" stroke-linejoin="round"/>
<path d="M109.796 61.0016C109.796 61.0016 110.131 58.8682 112.926 59.1122" stroke="#263238" stroke-width="0.645962" stroke-linecap="round" stroke-linejoin="round"/>
<path d="M117.284 59.7675C117.284 59.7675 119.892 57.6759 120.735 61.5035" stroke="#263238" stroke-width="0.645962" stroke-linecap="round" stroke-linejoin="round"/>
</svg>
