<svg width="205" height="249" viewBox="0 0 205 249" fill="none" xmlns="http://www.w3.org/2000/svg">
<path d="M14.9341 248.245L190.067 248.245C197.93 248.245 204.305 243.387 204.305 237.394L204.305 11.606C204.305 5.61327 197.93 0.755249 190.067 0.755249L14.9341 0.755249C7.07076 0.755249 0.696289 5.61327 0.696289 11.606L0.696289 237.394C0.696289 243.387 7.07076 248.245 14.9341 248.245Z" fill="#263238" stroke="#263238" stroke-width="0.775585" stroke-linecap="round" stroke-linejoin="round"/>
<path d="M182.578 11.2867H20.6675C15.454 11.2867 11.2275 14.4398 11.2275 18.3292V230.671C11.2275 234.56 15.454 237.713 20.6675 237.713H182.578C187.791 237.713 192.018 234.56 192.018 230.671V18.3292C192.018 14.4398 187.791 11.2867 182.578 11.2867Z" fill="white"/>
<path d="M101.57 135.527C125.921 135.527 145.66 115.795 145.66 91.4545C145.66 67.1142 125.921 47.3824 101.57 47.3824C77.2195 47.3824 57.4795 67.1142 57.4795 91.4545C57.4795 115.795 77.2195 135.527 101.57 135.527Z" fill="#92E3A9"/>
<path opacity="0.53" d="M101.57 135.527C125.921 135.527 145.66 115.795 145.66 91.4545C145.66 67.1142 125.921 47.3824 101.57 47.3824C77.2195 47.3824 57.4795 67.1142 57.4795 91.4545C57.4795 115.795 77.2195 135.527 101.57 135.527Z" fill="white"/>
<path d="M115.399 103.999C113.946 104.008 112.536 104.491 111.383 105.374C110.229 106.257 109.396 107.492 109.009 108.892H91.5392C91.2242 107.76 90.6167 106.731 89.7777 105.908C88.9387 105.085 87.8978 104.497 86.7595 104.204V102.211H116.716C117.131 102.215 117.534 102.072 117.854 101.808C118.174 101.544 118.391 101.175 118.466 100.767L121.994 82.2186C122.043 81.9614 122.034 81.6966 121.969 81.4431C121.903 81.1895 121.783 80.9536 121.615 80.7522C121.448 80.5507 121.238 80.3888 121.001 80.2779C120.764 80.167 120.505 80.11 120.243 80.1108H86.8234V71.7691C86.8216 71.3876 86.696 71.0171 86.4656 70.713C86.2351 70.409 85.9123 70.1879 85.5454 70.0828L75.8583 66.9914C75.6301 66.8996 75.3854 66.8559 75.1395 66.8629C74.8936 66.8699 74.6518 66.9275 74.4292 67.0322C74.2066 67.1368 74.008 67.2862 73.8458 67.471C73.6835 67.6558 73.5611 67.872 73.4863 68.1063C73.4114 68.3405 73.3856 68.5876 73.4106 68.8322C73.4356 69.0768 73.5108 69.3136 73.6314 69.5279C73.7521 69.7422 73.9156 69.9292 74.1119 70.0775C74.3081 70.2257 74.5329 70.3319 74.772 70.3894L83.2323 73.0721V104.28C82.12 104.611 81.1135 105.227 80.312 106.066C79.5106 106.905 78.942 107.939 78.6624 109.065C78.3829 110.191 78.402 111.37 78.718 112.486C79.0339 113.602 79.6357 114.617 80.4639 115.43C81.2922 116.242 82.3182 116.825 83.4406 117.12C84.563 117.415 85.743 117.412 86.864 117.112C87.985 116.812 89.0083 116.224 89.8327 115.408C90.657 114.591 91.2541 113.574 91.5647 112.456H108.996C109.33 113.654 109.992 114.735 110.908 115.576C111.824 116.418 112.956 116.987 114.179 117.219C115.401 117.451 116.663 117.336 117.824 116.889C118.984 116.441 119.997 115.679 120.746 114.686C121.496 113.694 121.953 112.512 122.067 111.274C122.18 110.036 121.944 108.79 121.387 107.679C120.829 106.567 119.972 105.634 118.912 104.984C117.851 104.333 116.63 103.992 115.386 103.999H115.399ZM94.9514 83.6749H100.063V98.6467H94.9514V83.6749ZM103.642 83.6749H108.754V98.6467H103.642V83.6749ZM115.284 98.6594H112.319V83.6749H118.134L115.284 98.6594ZM91.3858 83.6749V98.6467H86.8234V83.6749H91.3858ZM85.1493 113.784C84.5325 113.784 83.9296 113.602 83.4168 113.259C82.904 112.917 82.5043 112.43 82.2683 111.86C82.0323 111.291 81.9706 110.664 82.0909 110.059C82.2112 109.455 82.5082 108.899 82.9443 108.463C83.3804 108.028 83.936 107.731 84.5409 107.61C85.1458 107.49 85.7728 107.552 86.3426 107.788C86.9124 108.024 87.3994 108.423 87.742 108.936C88.0846 109.448 88.2675 110.051 88.2675 110.667C88.2676 111.08 88.1857 111.489 88.0266 111.869C87.8675 112.25 87.6343 112.595 87.3407 112.885C87.0471 113.175 86.6988 113.404 86.316 113.558C85.9332 113.713 85.5236 113.79 85.1109 113.784H85.1493ZM115.438 113.784C114.821 113.784 114.218 113.602 113.705 113.259C113.192 112.917 112.793 112.43 112.557 111.86C112.321 111.291 112.259 110.664 112.379 110.059C112.499 109.455 112.796 108.899 113.233 108.463C113.669 108.028 114.224 107.731 114.829 107.61C115.434 107.49 116.061 107.552 116.631 107.788C117.201 108.024 117.688 108.423 118.03 108.936C118.373 109.448 118.556 110.051 118.556 110.667C118.556 111.08 118.474 111.489 118.315 111.869C118.156 112.25 117.923 112.595 117.629 112.885C117.335 113.175 116.987 113.404 116.604 113.558C116.221 113.713 115.812 113.79 115.399 113.784H115.438Z" fill="#263238"/>
<path d="M123.616 91.4417C130.809 91.4417 136.639 85.6137 136.639 78.4245C136.639 71.2352 130.809 65.4072 123.616 65.4072C116.424 65.4072 110.594 71.2352 110.594 78.4245C110.594 85.6137 116.424 91.4417 123.616 91.4417Z" fill="white" stroke="#263238" stroke-width="1.55117" stroke-miterlimit="10"/>
<path d="M117.597 76.9299L122.606 83.9432L131.629 72.4205" stroke="#263238" stroke-width="2.32676" stroke-linecap="round" stroke-linejoin="round"/>
<path d="M146.301 159.16H56.2031C54.0857 159.16 52.3691 160.875 52.3691 162.992V185.986C52.3691 188.103 54.0857 189.818 56.2031 189.818H146.301C148.419 189.818 150.135 188.103 150.135 185.986V162.992C150.135 160.875 148.419 159.16 146.301 159.16Z" fill="#92E3A9"/>
<path d="M77.175 172.254C76.9738 172.029 76.8643 171.737 76.8683 171.436V166.122C76.8683 165.917 76.8683 165.726 76.8683 165.585C76.8901 165.43 76.9244 165.276 76.9705 165.125C77.0159 164.981 77.0947 164.85 77.2006 164.742C77.311 164.64 77.4416 164.561 77.5839 164.512C77.7772 164.447 77.9806 164.416 78.1846 164.423H80.4339C80.7615 164.402 81.0902 164.402 81.4179 164.423C81.7159 164.47 82.0074 164.552 82.287 164.665C82.5412 164.773 82.7747 164.925 82.977 165.113C83.174 165.325 83.3223 165.578 83.4116 165.854C83.5317 166.189 83.5881 166.545 83.5777 166.901C83.603 167.26 83.5419 167.621 83.3997 167.952C83.2574 168.283 83.038 168.575 82.7598 168.804C82.0799 169.277 81.2604 169.507 80.4339 169.456H78.9769V171.372C78.981 171.673 78.8715 171.965 78.6702 172.19C78.5792 172.298 78.4657 172.384 78.3377 172.444C78.2097 172.503 78.0702 172.534 77.929 172.535C77.7904 172.546 77.6509 172.527 77.5206 172.478C77.3903 172.43 77.2723 172.353 77.175 172.254ZM80.0632 168.242C80.2759 168.259 80.4896 168.259 80.7022 168.242C80.8649 168.209 81.0178 168.139 81.1495 168.038C81.2803 167.942 81.3784 167.808 81.4307 167.655C81.4983 167.453 81.5286 167.241 81.5202 167.029C81.5433 166.857 81.5265 166.683 81.4711 166.519C81.4157 166.355 81.3231 166.206 81.2007 166.083C80.8876 165.901 80.5271 165.817 80.1655 165.841H78.8875V168.306L80.0632 168.242Z" fill="black"/>
<path d="M84.971 172.087C84.7735 171.873 84.6208 171.621 84.522 171.347C84.4233 171.073 84.3804 170.782 84.396 170.49V168.14C84.3745 167.825 84.4552 167.511 84.626 167.246C84.7076 167.139 84.8149 167.055 84.9379 167.002C85.0608 166.948 85.1953 166.927 85.3289 166.939C85.4549 166.928 85.5817 166.951 85.6962 167.004C85.8107 167.058 85.9088 167.142 85.9807 167.246C86.1363 167.517 86.2075 167.828 86.1851 168.14V170.465C86.1685 170.744 86.2601 171.018 86.4408 171.231C86.5236 171.32 86.6247 171.391 86.7372 171.437C86.8497 171.483 86.9709 171.505 87.0925 171.5C87.2463 171.501 87.3986 171.469 87.5395 171.408C87.6803 171.346 87.8067 171.255 87.9104 171.142C88.1357 170.895 88.2549 170.569 88.2427 170.235V168.14C88.2212 167.825 88.3019 167.511 88.4728 167.246C88.5544 167.139 88.6617 167.055 88.7846 167.002C88.9075 166.948 89.0421 166.927 89.1756 166.939C89.3017 166.928 89.4284 166.951 89.5429 167.004C89.6574 167.058 89.7556 167.142 89.8274 167.246C89.983 167.517 90.0542 167.828 90.0319 168.14V171.615C90.054 171.88 89.9765 172.144 89.8146 172.356C89.7232 172.442 89.6144 172.509 89.4955 172.551C89.3766 172.592 89.2501 172.609 89.1245 172.598C88.5366 172.598 88.2555 172.266 88.2555 171.615V171.538C88.1167 171.886 87.8762 172.184 87.5654 172.394C87.2085 172.585 86.8071 172.678 86.4024 172.662C86.1372 172.669 85.8734 172.622 85.6272 172.523C85.381 172.424 85.1577 172.276 84.971 172.087Z" fill="black"/>
<path d="M91.347 171.397V167.821C91.3417 167.616 91.4097 167.417 91.5387 167.258C91.6473 167.112 91.8069 167.012 91.986 166.977C92.1592 166.946 92.3367 166.946 92.5099 166.977C92.6848 167.021 92.8387 167.125 92.9444 167.271C93.0736 167.425 93.1418 167.62 93.1361 167.821V168.025C93.187 167.883 93.2512 167.746 93.3278 167.616C93.4176 167.482 93.5158 167.354 93.6218 167.233C93.7398 167.103 93.8833 166.998 94.0435 166.926C94.2028 166.849 94.3777 166.81 94.5547 166.811C94.6801 166.806 94.8043 166.837 94.9125 166.901C95.0141 166.94 95.0996 167.012 95.1553 167.105C95.2082 167.191 95.243 167.287 95.2576 167.386C95.29 167.49 95.29 167.602 95.2576 167.706C95.2349 167.805 95.196 167.9 95.1426 167.987C95.0895 168.08 95.0093 168.156 94.9125 168.204C94.8092 168.255 94.6955 168.281 94.5803 168.28C94.2186 168.278 93.8654 168.39 93.5706 168.6C93.4348 168.702 93.3256 168.836 93.2522 168.989C93.1788 169.142 93.1434 169.311 93.1489 169.481V171.423C93.1735 171.731 93.1021 172.039 92.9444 172.304C92.8613 172.404 92.7549 172.482 92.6345 172.531C92.5142 172.58 92.3836 172.599 92.2543 172.585C91.6537 172.598 91.347 172.202 91.347 171.397Z" fill="black"/>
<path d="M97.6092 172.483C97.2693 172.372 96.9529 172.199 96.6763 171.972C96.3866 171.721 96.1591 171.407 96.0118 171.053C95.8454 170.648 95.7628 170.213 95.7689 169.775C95.7604 169.244 95.8926 168.719 96.1523 168.255C96.4178 167.821 96.7924 167.465 97.2386 167.22C97.7074 166.975 98.2305 166.852 98.7594 166.863C99.1051 166.862 99.4492 166.909 99.7818 167.003C100.056 167.081 100.312 167.211 100.536 167.386C100.646 167.48 100.727 167.605 100.766 167.744C100.804 167.869 100.804 168.002 100.766 168.127C100.733 168.242 100.681 168.35 100.613 168.447C100.539 168.537 100.434 168.597 100.319 168.613C100.182 168.624 100.045 168.597 99.9224 168.536C99.6122 168.357 99.258 168.269 98.9 168.281C98.5373 168.282 98.1893 168.424 97.9287 168.677C97.6702 168.977 97.5415 169.367 97.5709 169.762C97.5716 170.011 97.6148 170.257 97.6987 170.491C97.8002 170.723 97.9686 170.92 98.1826 171.057C98.3965 171.193 98.6463 171.263 98.9 171.257C99.2701 171.255 99.6341 171.163 99.9607 170.989C100.085 170.948 100.22 170.948 100.344 170.989C100.403 170.995 100.461 171.014 100.512 171.045C100.562 171.076 100.606 171.118 100.638 171.168C100.714 171.272 100.77 171.389 100.804 171.513C100.841 171.642 100.841 171.779 100.804 171.909C100.76 172.049 100.676 172.173 100.561 172.266C100.324 172.437 100.054 172.559 99.769 172.624C99.4181 172.712 99.0574 172.755 98.6955 172.752C98.3201 172.729 97.9519 172.638 97.6092 172.483Z" fill="black"/>
<path d="M101.84 171.398V165.636C101.818 165.32 101.889 165.005 102.044 164.729C102.12 164.627 102.222 164.547 102.338 164.495C102.454 164.444 102.582 164.423 102.709 164.435C103.322 164.435 103.629 164.831 103.629 165.636V167.782C103.833 167.44 104.134 167.166 104.493 166.994C104.852 166.821 105.253 166.758 105.648 166.811C105.886 166.827 106.119 166.883 106.338 166.978C106.556 167.073 106.756 167.207 106.926 167.374C107.104 167.561 107.243 167.783 107.335 168.025C107.441 168.316 107.493 168.623 107.489 168.932V171.398C107.512 171.709 107.441 172.021 107.284 172.292C107.204 172.397 107.099 172.481 106.979 172.534C106.858 172.588 106.725 172.61 106.594 172.598C106.006 172.598 105.712 172.202 105.712 171.398V169.034C105.726 168.756 105.635 168.482 105.456 168.268C105.372 168.178 105.268 168.107 105.154 168.061C105.039 168.014 104.916 167.994 104.792 168C104.64 167.997 104.489 168.028 104.35 168.09C104.211 168.151 104.087 168.243 103.987 168.357C103.871 168.48 103.782 168.625 103.722 168.783C103.663 168.94 103.636 169.108 103.642 169.277V171.398C103.666 171.709 103.594 172.021 103.437 172.292C103.358 172.397 103.253 172.481 103.132 172.534C103.011 172.588 102.879 172.61 102.747 172.598C102.159 172.598 101.84 172.202 101.84 171.398Z" fill="black"/>
<path d="M109.022 172.202C108.84 172.031 108.701 171.821 108.615 171.587C108.529 171.353 108.498 171.102 108.525 170.855C108.553 170.607 108.637 170.369 108.772 170.16C108.907 169.95 109.089 169.775 109.303 169.647C110.196 169.334 111.144 169.203 112.089 169.264V168.906C112.089 168.332 111.782 168.038 111.169 168.038C110.61 168.068 110.064 168.207 109.558 168.447C109.469 168.487 109.37 168.499 109.274 168.481C109.178 168.462 109.089 168.415 109.022 168.344C108.947 168.273 108.889 168.185 108.854 168.087C108.818 167.99 108.806 167.885 108.817 167.782C108.82 167.68 108.851 167.58 108.907 167.494C108.964 167.408 109.043 167.34 109.137 167.297C109.456 167.156 109.79 167.053 110.133 166.99C110.511 166.905 110.897 166.862 111.284 166.863C111.615 166.858 111.946 166.897 112.268 166.977C112.548 167.062 112.808 167.201 113.035 167.386C113.271 167.588 113.451 167.848 113.558 168.14C113.679 168.515 113.735 168.908 113.725 169.302V171.691C113.732 171.902 113.679 172.11 113.571 172.292C113.482 172.437 113.34 172.542 113.175 172.585C113.02 172.624 112.857 172.624 112.702 172.585C112.621 172.562 112.546 172.523 112.48 172.47C112.414 172.418 112.359 172.353 112.319 172.279C112.201 172.101 112.143 171.891 112.153 171.678V171.589C112.021 171.951 111.769 172.257 111.439 172.455C111.108 172.653 110.719 172.73 110.338 172.675C109.855 172.689 109.385 172.52 109.022 172.202ZM111.642 171.295C111.789 171.17 111.905 171.013 111.983 170.836C112.06 170.659 112.096 170.466 112.089 170.273V170.043H111.539H111.079C110.946 170.053 110.813 170.075 110.683 170.107C110.581 170.128 110.482 170.162 110.389 170.209C110.3 170.239 110.221 170.292 110.159 170.363C110.106 170.433 110.063 170.511 110.031 170.593C110.01 170.694 110.01 170.798 110.031 170.899C110.03 170.993 110.046 171.087 110.081 171.174C110.115 171.261 110.166 171.341 110.232 171.409C110.297 171.476 110.375 171.531 110.461 171.568C110.547 171.606 110.64 171.626 110.734 171.627C111.068 171.64 111.394 171.52 111.642 171.295Z" fill="black"/>
<path d="M115.093 171.985C114.999 171.913 114.928 171.815 114.888 171.704C114.85 171.596 114.85 171.479 114.888 171.372C114.923 171.271 114.98 171.18 115.054 171.104C115.13 171.02 115.236 170.97 115.348 170.963C115.481 170.954 115.613 170.98 115.732 171.04L115.936 171.155L116.243 171.308C116.358 171.358 116.478 171.396 116.601 171.423C116.76 171.462 116.923 171.487 117.086 171.5H117.47L117.84 171.436C117.952 171.409 118.054 171.351 118.134 171.27C118.174 171.229 118.204 171.181 118.224 171.128C118.244 171.076 118.252 171.019 118.249 170.963C118.246 170.906 118.229 170.851 118.2 170.802C118.171 170.754 118.131 170.712 118.083 170.682C117.935 170.575 117.765 170.501 117.585 170.465L116.805 170.26L116.102 170.043C115.922 169.976 115.747 169.894 115.578 169.801C115.42 169.726 115.276 169.622 115.157 169.494C115.059 169.368 114.985 169.225 114.939 169.072C114.875 168.883 114.844 168.684 114.85 168.485C114.839 168.228 114.899 167.973 115.023 167.748C115.147 167.523 115.33 167.336 115.553 167.207C116.126 166.879 116.789 166.745 117.444 166.824C117.664 166.833 117.882 166.863 118.096 166.914L118.569 167.041L118.978 167.22C119.1 167.273 119.202 167.362 119.272 167.476C119.341 167.572 119.373 167.69 119.361 167.808C119.347 167.915 119.312 168.019 119.259 168.114C119.196 168.206 119.1 168.27 118.991 168.293C118.86 168.324 118.725 168.324 118.594 168.293C118.228 168.153 117.846 168.059 117.457 168.012H117.022C116.88 168.023 116.741 168.062 116.614 168.127C116.558 168.147 116.511 168.184 116.476 168.232C116.442 168.28 116.423 168.337 116.422 168.395C116.42 168.457 116.433 168.518 116.459 168.574C116.486 168.629 116.526 168.678 116.575 168.715C116.731 168.801 116.899 168.861 117.074 168.894L117.84 169.085C118.105 169.155 118.365 169.24 118.62 169.341C118.825 169.421 119.018 169.528 119.195 169.66C119.365 169.786 119.502 169.953 119.591 170.145C119.702 170.427 119.742 170.731 119.708 171.031C119.675 171.332 119.569 171.62 119.4 171.87C119.176 172.172 118.863 172.396 118.505 172.509C118.094 172.647 117.66 172.703 117.227 172.675C116.464 172.656 115.722 172.416 115.093 171.985Z" fill="black"/>
<path d="M121.917 172.343C121.466 172.133 121.091 171.79 120.843 171.359C120.566 170.869 120.429 170.312 120.447 169.75C120.436 169.233 120.559 168.722 120.805 168.268C121.055 167.832 121.417 167.47 121.853 167.22C122.327 166.964 122.86 166.836 123.399 166.85C123.81 166.837 124.22 166.911 124.6 167.067C124.924 167.193 125.21 167.399 125.431 167.667C125.632 167.927 125.784 168.221 125.878 168.536C125.984 168.875 126.036 169.228 126.032 169.583C126.032 169.89 125.84 170.043 125.469 170.043H122.211C122.195 170.236 122.223 170.429 122.293 170.609C122.362 170.79 122.472 170.952 122.614 171.083C122.755 171.215 122.925 171.312 123.109 171.369C123.294 171.426 123.489 171.44 123.68 171.41C123.944 171.411 124.204 171.359 124.447 171.257C124.681 171.168 124.897 171.038 125.086 170.874C125.158 170.833 125.24 170.812 125.322 170.812C125.405 170.812 125.487 170.833 125.559 170.874C125.642 170.918 125.714 170.98 125.772 171.055C125.829 171.13 125.87 171.216 125.891 171.308C125.926 171.395 125.934 171.49 125.914 171.581C125.893 171.673 125.845 171.756 125.776 171.819C125.66 171.925 125.536 172.024 125.406 172.113L124.945 172.381C124.739 172.484 124.52 172.557 124.294 172.598C124.024 172.651 123.75 172.676 123.476 172.675C122.938 172.684 122.404 172.571 121.917 172.343ZM124.537 169.226C124.537 168.874 124.44 168.529 124.255 168.229C124.155 168.105 124.026 168.007 123.878 167.945C123.731 167.882 123.571 167.857 123.412 167.872C123.251 167.865 123.091 167.896 122.944 167.962C122.798 168.029 122.669 168.129 122.568 168.255C122.353 168.533 122.232 168.874 122.223 169.226H124.537Z" fill="black"/>
<path d="M71.9089 183.265C71.5689 183.154 71.2526 182.981 70.976 182.754C70.6863 182.503 70.4588 182.188 70.3114 181.834C70.1407 181.43 70.0537 180.996 70.0558 180.557C70.0504 180.028 70.1872 179.507 70.452 179.049C70.7122 178.613 71.0823 178.251 71.5255 178.002C71.9994 177.758 72.5262 177.635 73.0591 177.644C73.4047 177.645 73.7486 177.692 74.0815 177.785C74.3542 177.865 74.6098 177.995 74.8355 178.168C74.9461 178.262 75.0261 178.386 75.0655 178.526C75.1032 178.651 75.1032 178.784 75.0655 178.909C75.0275 179.021 74.976 179.128 74.9122 179.228C74.8357 179.322 74.7255 179.381 74.6054 179.394C74.4731 179.404 74.3407 179.377 74.2221 179.318C73.9079 179.137 73.5491 179.049 73.1869 179.062C72.8286 179.067 72.4857 179.209 72.2284 179.458C72.0979 179.605 71.9989 179.778 71.9373 179.964C71.8758 180.151 71.8531 180.348 71.8705 180.544C71.8712 180.792 71.9144 181.039 71.9983 181.272C72.0927 181.494 72.2477 181.684 72.4456 181.822C72.668 181.971 72.9318 182.047 73.1997 182.039C73.5695 182.035 73.9332 181.943 74.2604 181.77C74.3776 181.707 74.5124 181.685 74.6438 181.707C74.7031 181.712 74.7603 181.731 74.8112 181.762C74.8621 181.793 74.9053 181.835 74.9377 181.885C75.0134 181.989 75.0696 182.106 75.1038 182.23C75.1411 182.36 75.1411 182.497 75.1038 182.626C75.0596 182.767 74.9752 182.891 74.8611 182.984C74.6236 183.155 74.3541 183.277 74.0687 183.342C73.7177 183.43 73.357 183.473 72.9952 183.469C72.6237 183.467 72.2557 183.398 71.9089 183.265Z" fill="black"/>
<path d="M76.7137 182.652C76.4411 182.375 76.2288 182.045 76.0902 181.682C75.9516 181.319 75.8898 180.932 75.9086 180.544C75.9046 180.157 75.9695 179.772 76.1002 179.407C76.2268 179.063 76.4176 178.747 76.6626 178.475C76.9343 178.194 77.2665 177.98 77.6338 177.849C78.0719 177.689 78.5353 177.612 79.0013 177.619C79.4163 177.59 79.8328 177.645 80.2259 177.782C80.6189 177.918 80.9805 178.132 81.2889 178.411C81.5626 178.692 81.7763 179.027 81.9169 179.393C82.0575 179.76 82.1221 180.152 82.1068 180.544C82.1097 180.931 82.0448 181.316 81.9151 181.681C81.7865 182.019 81.5909 182.327 81.34 182.588C81.0707 182.871 80.7377 183.085 80.3688 183.214C79.9307 183.373 79.4673 183.451 79.0013 183.444C78.5861 183.475 78.169 183.42 77.7757 183.284C77.3823 183.148 77.0209 182.933 76.7137 182.652ZM79.9342 181.821C80.1749 181.44 80.291 180.994 80.2665 180.544C80.2869 180.094 80.1711 179.649 79.9342 179.267C79.8244 179.123 79.6832 179.008 79.5214 178.928C79.3596 178.848 79.1817 178.807 79.0013 178.807C78.8209 178.807 78.643 178.848 78.4812 178.928C78.3194 179.008 78.1781 179.123 78.0684 179.267C77.836 179.651 77.7246 180.096 77.7489 180.544C77.7197 180.993 77.8314 181.439 78.0684 181.821C78.1766 181.967 78.3173 182.085 78.4793 182.166C78.6412 182.247 78.82 182.29 79.0013 182.29C79.1826 182.29 79.3613 182.247 79.5233 182.166C79.6853 182.085 79.826 181.967 79.9342 181.821Z" fill="black"/>
<path d="M83.437 183.074C83.2814 182.802 83.2102 182.491 83.2325 182.179V178.883C83.2142 178.576 83.2853 178.27 83.437 178.002C83.5202 177.906 83.6248 177.83 83.7424 177.781C83.86 177.733 83.9874 177.712 84.1143 177.721C84.2388 177.708 84.3646 177.724 84.4822 177.767C84.5997 177.81 84.7061 177.879 84.7934 177.968C84.8806 178.058 84.9464 178.166 84.986 178.285C85.0255 178.403 85.0377 178.529 85.0217 178.654V178.73C85.14 178.367 85.391 178.061 85.7246 177.874C86.0889 177.677 86.4991 177.58 86.9131 177.593C87.1003 177.578 87.2883 177.578 87.4755 177.593C87.6469 177.631 87.8139 177.687 87.9738 177.759C88.1377 177.853 88.2811 177.979 88.3956 178.13C88.5171 178.325 88.6116 178.535 88.6768 178.756C88.7843 178.53 88.9218 178.319 89.0857 178.13C89.2366 177.976 89.4141 177.85 89.6097 177.759C89.7901 177.683 89.9788 177.627 90.172 177.593C90.372 177.579 90.5727 177.579 90.7726 177.593C91.0235 177.583 91.2737 177.625 91.5071 177.717C91.7405 177.81 91.9518 177.95 92.1273 178.13C92.5 178.555 92.6885 179.111 92.6513 179.676V182.141C92.6692 182.452 92.5982 182.762 92.4468 183.035C92.3672 183.141 92.2621 183.224 92.1414 183.278C92.0207 183.331 91.8883 183.353 91.7567 183.342C91.156 183.342 90.8621 182.946 90.8621 182.141V179.778C90.879 179.505 90.7922 179.236 90.6193 179.024C90.5407 178.932 90.4425 178.859 90.3318 178.811C90.2212 178.762 90.1011 178.739 89.9803 178.743C89.8285 178.74 89.6776 178.767 89.5369 178.824C89.3963 178.882 89.2688 178.967 89.1624 179.075C88.9371 179.322 88.8179 179.648 88.8301 179.982V182.141C88.8572 182.455 88.7809 182.769 88.6128 183.035C88.5332 183.141 88.4281 183.224 88.3074 183.278C88.1867 183.331 88.0543 183.353 87.9227 183.342C87.3348 183.342 87.0409 182.946 87.0409 182.141V180.008C87.0615 179.705 86.9805 179.404 86.8109 179.152C86.7357 179.051 86.6369 178.971 86.5232 178.917C86.4096 178.864 86.2846 178.839 86.1591 178.845C85.8588 178.834 85.5656 178.939 85.3412 179.139C85.2305 179.243 85.1444 179.37 85.0892 179.512C85.0339 179.653 85.0109 179.805 85.0217 179.957V182.243C85.0217 183.048 84.715 183.444 84.0888 183.444C83.9565 183.449 83.8256 183.416 83.7105 183.351C83.5954 183.285 83.5008 183.189 83.437 183.074Z" fill="black"/>
<path d="M94.1711 185.117C94.0247 184.843 93.9583 184.533 93.9794 184.223V178.973C93.963 178.648 94.0383 178.325 94.1966 178.04C94.2718 177.928 94.375 177.837 94.496 177.776C94.617 177.716 94.7517 177.688 94.8868 177.695C95.0055 177.689 95.1241 177.709 95.2345 177.753C95.3448 177.797 95.4442 177.864 95.5258 177.951C95.6815 178.121 95.7641 178.346 95.7558 178.577V178.73C95.9065 178.387 96.1674 178.104 96.497 177.925C96.9675 177.694 97.4992 177.617 98.0159 177.707C98.5325 177.796 99.0075 178.047 99.3725 178.423C99.8701 179.043 100.116 179.828 100.063 180.621C100.067 181.055 99.9982 181.487 99.8582 181.898C99.749 182.24 99.5607 182.55 99.3086 182.805C99.0836 183.033 98.8138 183.211 98.5162 183.329C98.2078 183.453 97.8775 183.514 97.545 183.508C97.1626 183.52 96.7836 183.432 96.4459 183.252C96.1448 183.1 95.9023 182.853 95.7558 182.55V184.313C95.7558 185.117 95.4491 185.513 94.8356 185.513C94.6991 185.515 94.5648 185.479 94.4476 185.409C94.3303 185.339 94.2346 185.238 94.1711 185.117ZM98.0051 181.77C98.2434 181.388 98.3594 180.943 98.3373 180.493C98.3575 180.289 98.3575 180.084 98.3373 179.88C98.2926 179.689 98.2239 179.504 98.1329 179.33C98.0422 179.159 97.9048 179.018 97.7367 178.922C97.5337 178.784 97.2913 178.717 97.0466 178.73C96.152 178.73 95.7686 179.318 95.7686 180.48C95.7474 180.93 95.8633 181.375 96.1009 181.758C96.2159 181.899 96.3624 182.013 96.5288 182.088C96.6952 182.163 96.8768 182.199 97.0594 182.192C97.2395 182.211 97.4215 182.185 97.5889 182.116C97.7563 182.047 97.9038 181.937 98.0178 181.796L98.0051 181.77Z" fill="black"/>
<path d="M101.484 183.074C101.332 182.801 101.261 182.491 101.279 182.179V176.418C101.261 176.107 101.332 175.797 101.484 175.524C101.555 175.42 101.654 175.336 101.768 175.283C101.883 175.229 102.009 175.206 102.135 175.217C102.269 175.206 102.403 175.228 102.526 175.282C102.648 175.335 102.756 175.418 102.838 175.524C103.011 175.789 103.092 176.103 103.068 176.418V182.179C103.092 182.495 103.011 182.809 102.838 183.074C102.756 183.179 102.648 183.262 102.526 183.316C102.403 183.369 102.269 183.392 102.135 183.38C102.009 183.391 101.883 183.369 101.768 183.315C101.654 183.261 101.555 183.178 101.484 183.074Z" fill="black"/>
<path d="M105.662 183.124C105.209 182.918 104.833 182.574 104.589 182.141C104.307 181.652 104.166 181.095 104.18 180.531C104.173 180.014 104.301 179.503 104.55 179.049C104.794 178.608 105.157 178.245 105.598 178.002C106.068 177.745 106.597 177.617 107.132 177.631C107.547 177.619 107.961 177.693 108.346 177.849C108.668 177.971 108.951 178.179 109.164 178.449C109.372 178.706 109.528 179.001 109.624 179.318C109.729 179.657 109.781 180.01 109.777 180.365C109.777 180.672 109.586 180.825 109.202 180.825H105.994C105.979 181.018 106.007 181.211 106.076 181.391C106.146 181.571 106.256 181.733 106.398 181.865C106.539 181.996 106.708 182.094 106.893 182.151C107.078 182.207 107.273 182.222 107.464 182.192C107.723 182.192 107.979 182.139 108.218 182.039C108.455 181.947 108.675 181.818 108.87 181.655C108.94 181.615 109.019 181.594 109.1 181.594C109.181 181.594 109.26 181.615 109.33 181.655C109.416 181.697 109.492 181.758 109.552 181.833C109.612 181.908 109.654 181.996 109.675 182.09C109.705 182.178 109.709 182.273 109.686 182.364C109.664 182.455 109.615 182.537 109.547 182.601C109.435 182.707 109.315 182.805 109.189 182.895L108.729 183.163C108.52 183.267 108.296 183.341 108.065 183.38C107.795 183.434 107.521 183.459 107.247 183.457C106.7 183.472 106.157 183.358 105.662 183.124ZM108.282 180.007C108.28 179.654 108.178 179.309 107.988 179.011C107.889 178.889 107.762 178.792 107.617 178.73C107.472 178.667 107.314 178.641 107.157 178.653C106.995 178.646 106.833 178.677 106.684 178.744C106.535 178.81 106.404 178.911 106.301 179.037C106.085 179.315 105.964 179.655 105.956 180.007H108.282Z" fill="black"/>
<path d="M111.733 182.946C111.383 182.476 111.219 181.894 111.273 181.311V178.922H110.928C110.845 178.928 110.761 178.918 110.682 178.891C110.603 178.865 110.53 178.823 110.468 178.769C110.353 178.629 110.298 178.45 110.314 178.27C110.303 178.189 110.311 178.107 110.338 178.03C110.364 177.953 110.409 177.883 110.467 177.826C110.525 177.769 110.596 177.726 110.674 177.701C110.752 177.676 110.834 177.67 110.915 177.683H111.388L111.516 176.597C111.58 175.894 111.873 175.549 112.372 175.549C112.87 175.549 113.062 175.933 113.062 176.686V177.683H113.752C114.148 177.683 114.34 177.9 114.34 178.321C114.348 178.403 114.338 178.484 114.311 178.561C114.285 178.639 114.242 178.709 114.187 178.769C114.122 178.824 114.047 178.867 113.966 178.893C113.884 178.919 113.799 178.929 113.714 178.922H113.062V180.915C113.035 181.257 113.096 181.6 113.241 181.911C113.343 182.103 113.548 182.179 113.854 182.167H114.174C114.224 182.161 114.276 182.165 114.324 182.181C114.373 182.196 114.417 182.222 114.455 182.256C114.536 182.322 114.594 182.411 114.621 182.511C114.634 182.613 114.634 182.716 114.621 182.818C114.612 182.927 114.577 183.032 114.519 183.125C114.467 183.214 114.386 183.282 114.289 183.316C113.875 183.439 113.442 183.491 113.011 183.47C112.774 183.471 112.539 183.426 112.319 183.336C112.1 183.246 111.901 183.113 111.733 182.946Z" fill="black"/>
<path d="M116.791 183.124C116.34 182.915 115.965 182.571 115.717 182.141C115.44 181.651 115.303 181.094 115.321 180.531C115.31 180.015 115.433 179.504 115.679 179.049C115.929 178.614 116.291 178.252 116.727 178.002C117.201 177.745 117.734 177.617 118.273 177.631C118.684 177.619 119.094 177.693 119.474 177.849C119.8 177.971 120.087 178.178 120.305 178.449C120.509 178.707 120.661 179.002 120.752 179.318C120.858 179.657 120.91 180.01 120.906 180.365C120.906 180.672 120.714 180.825 120.343 180.825H117.085C117.069 181.018 117.097 181.211 117.167 181.391C117.237 181.571 117.346 181.733 117.488 181.865C117.629 181.996 117.799 182.094 117.983 182.151C118.168 182.208 118.363 182.222 118.554 182.192C118.818 182.193 119.078 182.141 119.321 182.039C119.553 181.945 119.768 181.815 119.96 181.655C120.032 181.615 120.114 181.594 120.196 181.594C120.279 181.594 120.361 181.615 120.433 181.655C120.516 181.7 120.589 181.762 120.646 181.837C120.703 181.912 120.744 181.998 120.765 182.09C120.8 182.176 120.808 182.272 120.788 182.363C120.767 182.455 120.719 182.537 120.65 182.601C120.534 182.707 120.41 182.805 120.28 182.895L119.819 183.163C119.614 183.266 119.394 183.339 119.168 183.38C118.898 183.433 118.624 183.458 118.35 183.457C117.812 183.466 117.278 183.352 116.791 183.124ZM119.411 180.007C119.411 179.656 119.314 179.311 119.129 179.011C119.03 178.889 118.903 178.792 118.758 178.73C118.614 178.667 118.456 178.641 118.299 178.653C118.136 178.645 117.973 178.676 117.825 178.742C117.676 178.809 117.545 178.91 117.442 179.037C117.227 179.315 117.106 179.655 117.097 180.007H119.411Z" fill="black"/>
<path d="M122.465 182.728C121.979 182.108 121.738 181.33 121.788 180.544C121.782 180.111 121.847 179.679 121.979 179.266C122.097 178.933 122.284 178.628 122.529 178.372C122.753 178.141 123.023 177.958 123.321 177.836C123.632 177.722 123.961 177.666 124.292 177.67C124.675 177.655 125.054 177.744 125.391 177.925C125.696 178.073 125.939 178.321 126.082 178.628V176.405C126.063 176.088 126.139 175.772 126.299 175.498C126.387 175.396 126.497 175.317 126.622 175.266C126.746 175.215 126.881 175.194 127.015 175.204C127.139 175.195 127.264 175.218 127.377 175.269C127.491 175.32 127.59 175.399 127.666 175.498C127.812 175.777 127.879 176.091 127.858 176.405V182.115C127.873 182.44 127.798 182.763 127.641 183.048C127.567 183.158 127.466 183.246 127.347 183.305C127.228 183.363 127.096 183.389 126.963 183.38C126.844 183.388 126.724 183.371 126.611 183.329C126.499 183.287 126.397 183.222 126.312 183.137C126.154 182.963 126.071 182.733 126.082 182.498C125.919 182.843 125.654 183.13 125.322 183.317C124.99 183.505 124.608 183.585 124.229 183.546C123.892 183.552 123.558 183.482 123.253 183.34C122.947 183.198 122.678 182.989 122.465 182.728ZM126.082 180.582C126.107 180.13 125.986 179.683 125.737 179.305C125.624 179.159 125.479 179.042 125.312 178.965C125.145 178.887 124.962 178.85 124.778 178.858C124.59 178.849 124.403 178.889 124.235 178.974C124.067 179.059 123.924 179.186 123.82 179.343C123.586 179.727 123.47 180.171 123.487 180.621C123.487 180.832 123.513 181.042 123.564 181.247C123.605 181.443 123.674 181.632 123.768 181.809C123.857 181.984 123.989 182.134 124.152 182.243C124.33 182.347 124.533 182.4 124.74 182.396C125.634 182.388 126.082 181.783 126.082 180.582Z" fill="black"/>
<path d="M129.7 175.894C129.656 175.708 129.681 175.512 129.77 175.343C129.86 175.174 130.007 175.043 130.185 174.974C130.364 174.885 130.561 174.838 130.76 174.838C130.96 174.838 131.157 174.885 131.336 174.974C131.513 175.045 131.66 175.176 131.751 175.344C131.842 175.512 131.871 175.707 131.834 175.894L131.31 180.046C131.295 180.2 131.227 180.344 131.118 180.455C131.022 180.546 130.893 180.597 130.76 180.595C130.697 180.596 130.633 180.583 130.574 180.559C130.515 180.535 130.461 180.5 130.415 180.455C130.361 180.395 130.321 180.324 130.296 180.246C130.272 180.169 130.265 180.088 130.275 180.008L129.7 175.894ZM130.109 183.137C130.016 183.051 129.943 182.946 129.894 182.829C129.846 182.713 129.823 182.587 129.827 182.46C129.825 182.335 129.848 182.211 129.894 182.095C129.94 181.979 130.009 181.873 130.096 181.783C130.182 181.691 130.287 181.617 130.404 181.569C130.521 181.52 130.647 181.498 130.773 181.502C130.896 181.5 131.019 181.523 131.133 181.569C131.247 181.615 131.351 181.684 131.438 181.77C131.531 181.858 131.605 181.966 131.654 182.085C131.702 182.204 131.724 182.332 131.719 182.46C131.721 182.712 131.625 182.955 131.451 183.137C131.363 183.226 131.258 183.296 131.143 183.344C131.028 183.392 130.904 183.416 130.78 183.416C130.655 183.416 130.531 183.392 130.416 183.344C130.301 183.296 130.197 183.226 130.109 183.137Z" fill="black"/>
<path d="M182.578 11.2867H20.6675C15.454 11.2867 11.2275 14.4398 11.2275 18.3292V230.671C11.2275 234.56 15.454 237.713 20.6675 237.713H182.578C187.791 237.713 192.018 234.56 192.018 230.671V18.3292C192.018 14.4398 187.791 11.2867 182.578 11.2867Z" stroke="#263238" stroke-width="0.775585" stroke-linecap="round" stroke-linejoin="round"/>
<path d="M201.498 207.176V216.859C201.498 216.981 201.522 217.103 201.569 217.216C201.616 217.329 201.685 217.432 201.771 217.518C201.858 217.605 201.961 217.674 202.074 217.72C202.187 217.767 202.308 217.791 202.431 217.791C202.554 217.793 202.676 217.77 202.79 217.724C202.904 217.678 203.008 217.609 203.094 217.522C203.181 217.435 203.25 217.332 203.296 217.218C203.343 217.104 203.366 216.982 203.364 216.859V207.176C203.364 206.929 203.266 206.691 203.091 206.516C202.916 206.342 202.678 206.243 202.431 206.243C202.184 206.243 201.946 206.342 201.771 206.516C201.596 206.691 201.498 206.929 201.498 207.176Z" fill="white"/>
<path d="M201.498 170.053V189.994C201.521 190.221 201.631 190.431 201.805 190.579C201.979 190.726 202.203 190.801 202.431 190.786C202.66 190.804 202.886 190.731 203.061 190.582C203.235 190.434 203.344 190.223 203.364 189.994V170.053C203.344 169.825 203.235 169.614 203.061 169.465C202.886 169.317 202.66 169.244 202.431 169.261C202.203 169.247 201.979 169.322 201.805 169.469C201.631 169.617 201.521 169.826 201.498 170.053Z" fill="white"/>
</svg>
