<svg width="40" height="40" viewBox="0 0 40 40" fill="none" xmlns="http://www.w3.org/2000/svg">
<path d="M26.6667 5H1.66675V26.6667H26.6667V5Z" stroke="#247F70" stroke-width="3.33333" stroke-linecap="round" stroke-linejoin="round"/>
<path d="M26.6667 13.3334H33.3334L38.3334 18.3334V26.6667H26.6667V13.3334Z" stroke="#247F70" stroke-width="3.33333" stroke-linecap="round" stroke-linejoin="round"/>
<path d="M9.16667 35C11.4679 35 13.3333 33.1345 13.3333 30.8333C13.3333 28.5321 11.4679 26.6666 9.16667 26.6666C6.86548 26.6666 5 28.5321 5 30.8333C5 33.1345 6.86548 35 9.16667 35Z" stroke="#247F70" stroke-width="3.33333" stroke-linecap="round" stroke-linejoin="round"/>
<path d="M30.8334 35C33.1346 35 35.0001 33.1345 35.0001 30.8333C35.0001 28.5321 33.1346 26.6666 30.8334 26.6666C28.5322 26.6666 26.6667 28.5321 26.6667 30.8333C26.6667 33.1345 28.5322 35 30.8334 35Z" stroke="#247F70" stroke-width="3.33333" stroke-linecap="round" stroke-linejoin="round"/>
</svg>
